<?xml version="1.0" encoding="UTF-8"?>
<svg version="1.1" xmlns="http://www.w3.org/2000/svg" width="950" height="1000">
<path d="M0 0 C313.5 0 627 0 950 0 C950 330 950 660 950 1000 C636.5 1000 323 1000 0 1000 C0 670 0 340 0 0 Z " fill="#F4F5F5" transform="translate(0,0)"/>
<path d="M0 0 C3.94368908 0.70571278 7.91487536 1.23213403 11.88476562 1.76757812 C16.54858862 2.44779727 20.6514631 3.48693156 25.01977539 5.2487793 C28.42948932 6.54229301 31.95713659 7.34442973 35.5 8.1875 C36.59054687 8.45336914 36.59054687 8.45336914 37.703125 8.72460938 C39.46768458 9.15414032 41.23369229 9.57771527 43 10 C43 10.66 43 11.32 43 12 C43.556875 12.03738281 44.11375 12.07476562 44.6875 12.11328125 C49.38749052 12.51817908 53.37897623 13.31539695 57.73828125 15.1015625 C62.40963913 16.95719689 67.22577037 18.43246127 72 20 C72 20.66 72 21.32 72 22 C72.78375 22.2475 73.5675 22.495 74.375 22.75 C84.39194597 26.2041193 94.58394548 30.13578226 104 35 C104 35.66 104 36.32 104 37 C104.721875 37.103125 105.44375 37.20625 106.1875 37.3125 C109.31971361 38.07815222 111.24635821 39.31721891 114 41 C116.5888664 42.42466315 119.20072137 43.80538174 121.8125 45.1875 C122.85180664 45.73954102 122.85180664 45.73954102 123.91210938 46.30273438 C125.60744099 47.20301392 127.30363325 48.10167245 129 49 C129 49.66 129 50.32 129 51 C130.6396875 51.4021875 130.6396875 51.4021875 132.3125 51.8125 C136.06861261 53.02209558 136.43386287 53.42789511 139 56 C141.17094016 57.42148184 143.34019038 58.79014736 145.5625 60.125 C146.15224609 60.48464844 146.74199219 60.84429687 147.34960938 61.21484375 C149.53751433 62.54401468 151.70926034 63.85463017 154 65 C154 65.66 154 66.32 154 67 C154.515625 67.226875 155.03125 67.45375 155.5625 67.6875 C158.33778626 69.18188491 160.77326706 70.97018824 163.31640625 72.82421875 C165.13113446 74.09158114 166.97390396 75.10851774 169 76 C169 76.66 169 77.32 169 78 C169.5259375 78.21785156 170.051875 78.43570313 170.59375 78.66015625 C173.91071468 80.50710249 176.64870663 82.95797391 179.5 85.4375 C180.63453361 86.41638898 181.76992933 87.39427981 182.90625 88.37109375 C183.43734375 88.82983887 183.9684375 89.28858398 184.515625 89.76123047 C185.76694971 90.80551033 187.08102403 91.77391493 188.40625 92.72265625 C188.9321875 93.14417969 189.458125 93.56570312 190 94 C190 94.66 190 95.32 190 96 C190.58910156 96.27199219 191.17820312 96.54398437 191.78515625 96.82421875 C198.55259071 100.41680741 204.1465051 106.7580659 209 112.5625 C210.74991364 114.63746121 212.29667312 116.23581709 214.4375 117.9375 C218.11013218 120.89352102 220.94709675 124.41943445 224 128 C225.01822959 129.1691037 226.03787728 130.33697315 227.05859375 131.50390625 C248.84370385 156.43398247 248.84370385 156.43398247 253.0703125 165.2265625 C253.87454137 167.18082674 253.87454137 167.18082674 256 168 C257.03961455 169.64224826 258.03361913 171.31361754 259 173 C260.07884702 174.69037169 261.16240468 176.3777437 262.25 178.0625 C273 194.93243603 273 194.93243603 273 198 C273.66 198 274.32 198 275 198 C275.27263672 198.81404297 275.27263672 198.81404297 275.55078125 199.64453125 C275.80214844 200.35996094 276.05351563 201.07539063 276.3125 201.8125 C276.67794922 202.87404297 276.67794922 202.87404297 277.05078125 203.95703125 C278.08367265 206.18008557 279.26885917 207.29060717 281 209 C283.62028437 213.44748564 285.88173192 218.05705568 287.1875 223.0625 C287.455625 224.031875 287.72375 225.00125 288 226 C288.66 226.33 289.32 226.66 290 227 C290.8515625 228.7421875 290.8515625 228.7421875 291.625 230.875 C291.88539063 231.57367188 292.14578125 232.27234375 292.4140625 232.9921875 C293 235 293 235 293 238 C293.66 238 294.32 238 295 238 C298.53020761 247.58711205 301.98384489 256.96666339 304 267 C304.66 267 305.32 267 306 267 C306.50435694 268.9363704 307.00333874 270.87414146 307.5 272.8125 C307.7784375 273.89144531 308.056875 274.97039062 308.34375 276.08203125 C309 279 309 279 309 282 C309.66 282 310.32 282 311 282 C313.29612756 291.41002278 313.29612756 291.41002278 313 296 C313.66 296 314.32 296 315 296 C315.16604736 296.83809204 315.16604736 296.83809204 315.33544922 297.69311523 C315.84757383 300.27478816 316.36127923 302.85614423 316.875 305.4375 C317.04902344 306.31599609 317.22304688 307.19449219 317.40234375 308.09960938 C318.20786453 312.14213032 319.03627574 316.16502013 320.00390625 320.171875 C321.53169402 326.96195931 322.21948766 333.91098574 323.0625 340.8125 C323.32227856 342.92232647 323.58333733 345.03197075 323.84727478 347.14128113 C324.08477828 349.04149726 324.31802412 350.94224414 324.55102539 352.84301758 C324.91985279 355.83627607 324.91985279 355.83627607 325.52172852 358.06567383 C328.32754235 369.41353652 327.15431333 382.43162455 327.13037109 394.03808594 C327.12504635 397.09835854 327.1303268 400.15848204 327.13671875 403.21875 C327.14117616 412.8372542 327.03514167 422.44443302 326.6171875 432.0546875 C326.58682404 432.85786407 326.55646057 433.66104065 326.525177 434.48855591 C326.28378392 439.27885325 325.36697325 443.37907513 324 448 C323.61927025 450.74468908 323.29443514 453.4522244 323.03515625 456.20703125 C322.87321251 457.77931394 322.71109775 459.35157903 322.54882812 460.92382812 C322.30435983 463.36532978 322.06302664 465.80708659 321.82543945 468.24926758 C320.23056311 484.47504444 320.23056311 484.47504444 317.69360352 491.91333008 C316.19966043 496.40777977 315.58362508 501.12596917 314.74609375 505.77734375 C314 509 314 509 312 512 C311.36965499 514.04862129 310.79395536 516.11426663 310.25 518.1875 C308.54120312 524.38670672 306.47201823 530.33933291 304.10644531 536.31713867 C302.34871869 540.82000704 301.09652423 545.29016735 300 550 C299.34 550 298.68 550 298 550 C297.90203125 550.556875 297.8040625 551.11375 297.703125 551.6875 C296.73253694 556.64084595 295.3552429 560.76056279 292.90234375 565.17578125 C291.95213182 567.09677247 291.44758562 568.90972903 291 571 C290.34 571 289.68 571 289 571 C288.86827393 571.56452881 288.73654785 572.12905762 288.60083008 572.71069336 C286.6745109 580.0163885 283.42529854 586.25259 279.69458008 592.7956543 C278.69011633 594.55790985 277.70038772 596.32780087 276.71289062 598.09960938 C273.44851214 603.89968126 270.079671 609.56157107 266.32495117 615.05737305 C265.12159625 616.82171709 263.96631487 618.60482 262.83203125 620.4140625 C257.66283281 628.63278807 252.10120897 636.47046473 246.29589844 644.25 C245.06960436 645.90600526 243.86243934 647.57371749 242.6640625 649.25 C241.97054687 650.219375 241.27703125 651.18875 240.5625 652.1875 C239.96566406 653.02667969 239.36882813 653.86585938 238.75390625 654.73046875 C236.98637902 657.01762537 235.04534738 658.9631749 233 661 C232.484375 661.886875 231.96875 662.77375 231.4375 663.6875 C230 666 230 666 227 667 C226.7525 667.70125 226.505 668.4025 226.25 669.125 C224.44866004 673.26808192 221.45945872 676.13381149 218 679 C217.01 679.33 216.02 679.66 215 680 C213.48968985 681.489853 213.48968985 681.489853 212 683.375 C208.86632176 687.06562748 205.59173864 690.56118358 202.1875 694 C201.70732422 694.49290527 201.22714844 694.98581055 200.73242188 695.49365234 C199.52729666 696.70262371 198.267463 697.85655079 197 699 C196.34 699 195.68 699 195 699 C195 699.66 195 700.32 195 701 C193.7421875 702.3046875 193.7421875 702.3046875 191.875 703.875 C191.14023437 704.49761719 190.40546875 705.12023437 189.6484375 705.76171875 C188.77445313 706.50035156 187.90046875 707.23898437 187 708 C185.96984907 708.90062509 184.94129519 709.8030791 183.9140625 710.70703125 C177.59306405 716.24332224 171.13865583 721.55354177 164.4375 726.625 C163.77105469 727.13377686 163.10460937 727.64255371 162.41796875 728.16674805 C159.0640922 730.67065207 156.02661411 732.68613359 152 734 C152 734.66 152 735.32 152 736 C150.02 736.66 148.04 737.32 146 738 C146.144375 738.72445312 146.28875 739.44890625 146.4375 740.1953125 C147.39550392 745.18491623 148.27607149 749.89267738 148 755 C148.66 755 149.32 755 150 755 C151.85466965 765.44907631 152.23049133 775.42300905 152 786 C145.93127172 781.55485357 139.99931354 777.03501965 134.703125 771.67578125 C131.722051 768.72486262 128.62371466 765.97515117 125.4375 763.25 C124.82688721 762.72704346 124.21627441 762.20408691 123.5871582 761.6652832 C118.77633205 757.58259557 113.82768627 753.7599976 108.7421875 750.0234375 C106.22483343 748.16590273 103.76427648 746.25525714 101.3125 744.3125 C97.57729787 741.3708573 93.68480202 738.77769699 89.65234375 736.26171875 C89.10707031 735.84535156 88.56179688 735.42898438 88 735 C88 734.34 88 733.68 88 733 C87.27167969 732.73316406 86.54335938 732.46632813 85.79296875 732.19140625 C83.02972021 731.01267785 80.77913082 729.64194609 78.3125 727.9375 C75.24499911 725.8177976 75.24499911 725.8177976 72 724 C72 723.34 72 722.68 72 722 C71.030625 721.731875 70.06125 721.46375 69.0625 721.1875 C67.5465625 720.5996875 67.5465625 720.5996875 66 720 C65.67 719.01 65.34 718.02 65 717 C63.01560177 716.28823593 61.01234847 715.62840918 59 715 C57.15268579 713.93313006 55.33906145 712.80593635 53.5625 711.625 C49.44270319 708.92912203 45.30294921 706.39052734 41 704 C41 703.34 41 702.68 41 702 C38.03 701.01 35.06 700.02 32 699 C32 698.34 32 697.68 32 697 C28.7 696.01 25.4 695.02 22 694 C22 693.34 22 692.68 22 692 C18.7 691.01 15.4 690.02 12 689 C12 688.34 12 687.68 12 687 C11.37351562 686.86722656 10.74703125 686.73445312 10.1015625 686.59765625 C9.28429687 686.42105469 8.46703125 686.24445312 7.625 686.0625 C6.81289063 685.88847656 6.00078125 685.71445312 5.1640625 685.53515625 C3 685 3 685 1 684 C1 683.34 1 682.68 1 682 C-0.093125 681.855625 -1.18625 681.71125 -2.3125 681.5625 C-6 681 -6 681 -9 680 C-9 679.34 -9 678.68 -9 678 C-9.83144531 677.87882813 -10.66289063 677.75765625 -11.51953125 677.6328125 C-12.60621094 677.46523438 -13.69289063 677.29765625 -14.8125 677.125 C-15.89144531 676.96257813 -16.97039063 676.80015625 -18.08203125 676.6328125 C-21 676 -21 676 -24 674 C-26.07848729 673.4431317 -28.17783653 672.96256246 -30.28515625 672.52734375 C-32.16557617 672.13772461 -32.16557617 672.13772461 -34.08398438 671.74023438 C-35.06564575 671.54240356 -35.06564575 671.54240356 -36.06713867 671.34057617 C-38.03287535 670.94348437 -39.99596528 670.53336214 -41.95898438 670.12304688 C-52.15131189 668.03671541 -61.98295156 666.84070799 -72.3828125 666.8671875 C-73.66972488 666.86575241 -73.66972488 666.86575241 -74.9826355 666.86428833 C-76.78595046 666.86361302 -78.58926795 666.86542161 -80.39257812 666.86962891 C-83.09771438 666.87494636 -85.80268158 666.86968218 -88.5078125 666.86328125 C-99.04665746 666.85966636 -109.49080249 667.18560676 -120 668 C-118.13307633 663.78252525 -115.36258608 661.83908031 -111.625 659.3125 C-110.3429162 658.42177187 -109.06167919 657.52982376 -107.78125 656.63671875 C-107.14058594 656.19247559 -106.49992187 655.74823242 -105.83984375 655.29052734 C-101.13335224 651.98923832 -96.58690588 648.4641577 -92 645 C-90.76481403 644.07486477 -89.52911103 643.15041954 -88.29296875 642.2265625 C-86.9661305 641.23439551 -85.63930791 640.24220757 -84.3125 639.25 C-83.64992188 638.75483887 -82.98734375 638.25967773 -82.3046875 637.74951172 C-78.60351463 634.97628587 -74.92515788 632.17680461 -71.26953125 629.34375 C-70.49375732 628.74401367 -69.7179834 628.14427734 -68.91870117 627.52636719 C-67.41173606 626.35929128 -65.90788446 625.18818186 -64.4074707 624.01269531 C-63.729021 623.48772461 -63.05057129 622.96275391 -62.3515625 622.421875 C-61.75166504 621.95362305 -61.15176758 621.48537109 -60.53369141 621.00292969 C-59 620 -59 620 -57 620 C-57 619.34 -57 618.68 -57 618 C-55.35 617.34 -53.7 616.68 -52 616 C-52 615.34 -52 614.68 -52 614 C-50.15772757 612.46375289 -48.308373 611.03887714 -46.375 609.625 C-41.3323814 605.84671143 -36.45670806 601.93082683 -31.6875 597.8125 C-30.86354736 597.1011792 -30.86354736 597.1011792 -30.02294922 596.37548828 C-28.92219388 595.42123753 -27.82367619 594.46440008 -26.72729492 593.50512695 C-25.53347623 592.4648595 -24.33262751 591.43262469 -23.1262207 590.40698242 C-16.86394068 585.04031166 -11.16576658 579.16814087 -5.44726562 573.23242188 C-4.68736328 572.45833984 -3.92746094 571.68425781 -3.14453125 570.88671875 C-2.46753174 570.18764404 -1.79053223 569.48856934 -1.09301758 568.76831055 C1.16990421 566.85645443 3.25513314 566.051108 6 565 C6.33 564.34 6.66 563.68 7 563 C13.76437054 560.64521912 21.41063231 561.68151878 28 564 C29.2375 564.4125 30.475 564.825 31.75 565.25 C37.10395766 567.28408234 42.0307889 570.17741502 47 573 C47 573.66 47 574.32 47 575 C47.68707031 575.2165625 48.37414062 575.433125 49.08203125 575.65625 C52.84859046 577.39078329 55.59264291 579.7741451 58.6875 582.5 C59.30109375 583.03463867 59.9146875 583.56927734 60.546875 584.12011719 C79.62734027 600.90017146 79.62734027 600.90017146 84 612 C84.99 612.33 85.98 612.66 87 613 C88.578125 615.15234375 88.578125 615.15234375 90.25 617.9375 C92.60575654 621.77430178 95.01549446 625.51823894 97.625 629.1875 C102.62827534 636.29977929 106.59998803 642.57068967 109 651 C109.66 651 110.32 651 111 651 C111.37511719 651.82242188 111.75023437 652.64484375 112.13671875 653.4921875 C115.62106233 661.09279591 119.21175435 668.61899456 123.05859375 676.04296875 C127.66160222 685.01614868 130.90473322 694.41784433 134 704 C137.93712227 704 138.57334782 702.81495841 141.375 700.125 C145.29067918 696.48370418 149.2972082 693.14800172 153.5625 689.9375 C162.95274222 683.52987421 162.95274222 683.52987421 170 675 C170.66 675 171.32 675 172 675 C172.226875 674.443125 172.45375 673.88625 172.6875 673.3125 C174.37550036 670.33840412 176.46676517 668.27991135 179 666 C179.66 666 180.32 666 181 666 C181.2475 665.38125 181.495 664.7625 181.75 664.125 C183.23740369 661.59641373 184.43678009 661.28160996 187 660 C187.30679688 659.38382813 187.61359375 658.76765625 187.9296875 658.1328125 C189.07629378 655.84796932 190.25838372 654.6027053 192.125 652.875 C196.53400397 648.59379325 200.22040511 643.83386519 204 639 C205.45670151 637.18618825 206.91499096 635.37365045 208.375 633.5625 C210.37381045 631.08190456 212.23109263 628.65336106 214 626 C214.66 626 215.32 626 216 626 C216.28875 625.195625 216.5775 624.39125 216.875 623.5625 C218 621 218 621 220 620 C220.96949243 618.3618921 221.93310121 616.71978545 222.85546875 615.0546875 C224.07459216 612.86609053 225.33100313 610.70771015 226.625 608.5625 C227.02976562 607.88316406 227.43453125 607.20382812 227.8515625 606.50390625 C228.23054687 606.00761719 228.60953125 605.51132812 229 605 C229.66 605 230.32 605 231 605 C231.226875 604.175 231.45375 603.35 231.6875 602.5 C233.24941057 598.33490514 235.22850107 594.4999057 238 591 C238.66 591 239.32 591 240 591 C240.08121094 590.33613281 240.16242187 589.67226563 240.24609375 588.98828125 C241.24807812 585.01668518 243.08633454 581.75415441 245.0625 578.1875 C245.43955078 577.49462891 245.81660156 576.80175781 246.20507812 576.08789062 C247.13083852 574.38871015 248.06462312 572.69390575 249 571 C249.66 571 250.32 571 251 571 C251.185625 569.9171875 251.185625 569.9171875 251.375 568.8125 C251.9904931 566.04278106 252.88444374 563.6029646 254 561 C254.66 561 255.32 561 256 561 C256.66 558.03 257.32 555.06 258 552 C258.66 552 259.32 552 260 552 C260.18175781 551.19175781 260.36351562 550.38351562 260.55078125 549.55078125 C260.92783203 547.94783203 260.92783203 547.94783203 261.3125 546.3125 C261.67794922 544.72888672 261.67794922 544.72888672 262.05078125 543.11328125 C262.99825137 540.00573521 264.27752836 537.73408198 266 535 C266.76224354 533.11920732 266.76224354 533.11920732 267.3125 531.1875 C268.26642213 528.15321578 269.30158271 525.17476708 270.453125 522.2109375 C274.26000419 512.48957898 274.26000419 512.48957898 276.48046875 502.30859375 C277 500 277 500 278.42578125 496.83203125 C280.37197338 492.44385792 281.16590307 487.95659621 282 483.25 C282.16733643 482.3434668 282.33467285 481.43693359 282.50708008 480.50292969 C283.82122716 473.28294676 284.98731281 466.03965884 286.04882812 458.77832031 C286.89621187 453.10378813 286.89621187 453.10378813 288 452 C290.67178731 436.2964338 290.31050477 420.2860986 290.26074219 404.41210938 C290.24934843 400.7380281 290.2561142 397.06423668 290.26763153 393.39016533 C290.36261415 366.87108541 290.36261415 366.87108541 286.5078125 340.6875 C285.28048499 334.1921052 284.71623398 327.56801797 284 321 C283.34 321 282.68 321 282 321 C281.84966309 320.16976318 281.84966309 320.16976318 281.69628906 319.32275391 C279.39879717 306.09224923 279.39879717 306.09224923 274.99609375 293.46875 C273.70614787 290.27170766 272.90801208 287.02880075 272.0625 283.6875 C270.49379883 277.53719541 268.48585008 271.76007899 266.05078125 265.90234375 C264.97500216 262.93095392 264.4226392 260.12567232 264 257 C263.34 257 262.68 257 262 257 C261.76925781 256.41734375 261.53851562 255.8346875 261.30078125 255.234375 C260.20773848 252.48664693 259.10443853 249.74316714 258 247 C257.60296875 246.00355469 257.2059375 245.00710938 256.796875 243.98046875 C254.2518966 237.70661376 251.39342587 231.85073426 248 226 C247.18736077 224.47924106 246.3748617 222.95840721 245.5625 221.4375 C243.89392946 218.40993647 242.07639261 215.71392153 239.9375 213 C237.23420306 209.53423469 235.54527084 206.03133831 233.87890625 201.98046875 C232.87624442 199.72113743 231.53934643 197.92418304 230 196 C230 195.34 230 194.68 230 194 C229.34 194 228.68 194 228 194 C227.34 192.02 226.68 190.04 226 188 C225.34 188 224.68 188 224 188 C222.87890625 186.26953125 222.87890625 186.26953125 221.5625 183.8125 C217.87061029 177.43723679 213.20521764 172.14287702 208.38720703 166.61376953 C205.53083821 163.29089063 202.81117762 159.85576524 200.0703125 156.4375 C197.83974998 153.81132828 195.44722018 151.42424159 193 149 C191.63529854 147.48861278 190.28118986 145.9675977 188.9375 144.4375 C179.01106223 133.35297782 168.31430936 123.35332051 156.65234375 114.1171875 C153.82443407 111.85985754 151.03741523 109.55708723 148.25 107.25 C144.60277438 104.25937758 140.9909767 101.50596212 137 99 C134.9659094 97.71927629 132.95597184 96.39712274 131 95 C131 94.34 131 93.68 131 93 C130.0925 92.71125 129.185 92.4225 128.25 92.125 C125.67797092 91.23468224 123.38653234 90.28505587 121 89 C121 88.34 121 87.68 121 87 C120.42765625 86.71382813 119.8553125 86.42765625 119.265625 86.1328125 C115.84375 84.421875 112.421875 82.7109375 109 81 C109 80.34 109 79.68 109 79 C108.0925 78.71125 107.185 78.4225 106.25 78.125 C103.67797092 77.23468224 101.38653234 76.28505587 99 75 C99 74.34 99 73.68 99 73 C98.29875 72.89429688 97.5975 72.78859375 96.875 72.6796875 C93.6062958 71.90692319 90.98695031 70.65657401 88 69.125 C86.989375 68.61195313 85.97875 68.09890625 84.9375 67.5703125 C82.23544994 66.12586553 79.62524767 64.57780037 77 63 C71.13631857 60.30270654 65.07703853 58.16487629 59 56 C59 55.34 59 54.68 59 54 C57.02 53.67 55.04 53.34 53 53 C53 52.34 53 51.68 53 51 C52.071875 51.0825 51.14375 51.165 50.1875 51.25 C44.74517452 51.25 39.98593309 48.98089774 35 47 C27.71555528 44.13972368 20.75499222 42.13999886 13 41 C13 40.34 13 39.68 13 39 C6.07 38.01 -0.86 37.02 -8 36 C-8 35.34 -8 34.68 -8 34 C-9.0209375 33.94392578 -9.0209375 33.94392578 -10.0625 33.88671875 C-15.79584042 33.49788848 -21.25775096 32.77936577 -26.875 31.5625 C-57.14348407 25.44288815 -90.19317904 26.99897173 -120.8125 29.375 C-121.64249512 29.43803314 -122.47249023 29.50106628 -123.32763672 29.56600952 C-125.68431516 29.74935436 -128.03943759 29.94583525 -130.39453125 30.1484375 C-131.09193924 30.20376144 -131.78934723 30.25908539 -132.50788879 30.31608582 C-136.35764302 30.66968534 -139.46548532 31.46973414 -143 33 C-145.42992135 33.28335716 -147.8699502 33.48803459 -150.3125 33.625 C-151.56675781 33.69976562 -152.82101562 33.77453125 -154.11328125 33.8515625 C-155.06589844 33.90054688 -156.01851563 33.94953125 -157 34 C-157 34.66 -157 35.32 -157 36 C-157.71019287 36.13575439 -158.42038574 36.27150879 -159.15209961 36.41137695 C-162.41514115 37.03881345 -165.67629516 37.6755887 -168.9375 38.3125 C-170.05447266 38.52583984 -171.17144531 38.73917969 -172.32226562 38.95898438 C-178.74125748 40.22019392 -184.86719745 41.72163128 -191 44 C-191.63478271 44.23291748 -192.26956543 44.46583496 -192.92358398 44.70581055 C-195.87508378 45.79682883 -198.82090585 46.9025412 -201.765625 48.01171875 C-204.74347621 48.92161773 -206.9201357 49.21420109 -210 49 C-210 49.66 -210 50.32 -210 51 C-213.96 51.99 -217.92 52.98 -222 54 C-222 54.66 -222 55.32 -222 56 C-223.8871875 56.5878125 -223.8871875 56.5878125 -225.8125 57.1875 C-237.06489728 60.95582619 -249.11208957 66.40805971 -259 73 C-259.99 73 -260.98 73 -262 73 C-262.33 73.99 -262.66 74.98 -263 76 C-265.15691456 77.22363422 -267.25291838 78.28466607 -269.5 79.3125 C-275.36082548 82.1169213 -280.70501717 85.21647636 -286 89 C-286.75152344 89.52078125 -287.50304687 90.0415625 -288.27734375 90.578125 C-289.92669679 91.72224672 -291.57101213 92.87365562 -293.2109375 94.03125 C-295.23109535 95.45724378 -297.25696978 96.87252021 -299.2890625 98.28125 C-307.60313292 104.08444553 -315.36305081 110.33577875 -323 117 C-323.70382812 117.60328125 -324.40765625 118.2065625 -325.1328125 118.828125 C-338.49891641 130.34869991 -351.62061068 142.49000162 -363 156 C-364.28003906 157.48113281 -364.28003906 157.48113281 -365.5859375 158.9921875 C-373.51463504 168.19563059 -380.84531212 177.55177568 -386.7734375 188.19921875 C-387.17820312 188.79347656 -387.58296875 189.38773438 -388 190 C-388.66 190 -389.32 190 -390 190 C-390.38865234 191.08667969 -390.38865234 191.08667969 -390.78515625 192.1953125 C-392.04523722 195.10443834 -393.55047037 197.33461172 -395.4375 199.875 C-397.59072899 202.86361036 -399.44329053 205.63947632 -400.8125 209.0625 C-402 212 -402 212 -404 213 C-405.04486466 214.97693142 -406.03540028 216.98268808 -407 219 C-407.63839219 220.19930317 -408.28449681 221.39452678 -408.9375 222.5859375 C-412.39829588 228.93653109 -415.74673552 235.09937753 -418 242 C-418.66 242 -419.32 242 -420 242 C-420.391875 243.216875 -420.78375 244.43375 -421.1875 245.6875 C-422.5117603 249.67283312 -423.9777077 253.58619108 -425.5 257.5 C-427.49099374 262.62396888 -429.31887881 267.76751031 -431 273 C-431.66666667 275 -432.33333333 277 -433 279 C-433.66 279 -434.32 279 -435 279 C-435.18175781 280.14275391 -435.18175781 280.14275391 -435.3671875 281.30859375 C-436.38749792 287.59527564 -437.55279729 293.79770268 -439 300 C-439.66 300 -440.32 300 -441 300 C-441.12117188 300.60585938 -441.24234375 301.21171875 -441.3671875 301.8359375 C-443 310 -443 310 -443.44628906 312.14794922 C-444.82504507 318.86230212 -445.94042917 325.60368013 -447 332.375 C-447.33293278 334.48704235 -447.66626516 336.59902174 -448 338.7109375 C-448.24556641 340.27473145 -448.24556641 340.27473145 -448.49609375 341.87011719 C-449.13452783 345.83558468 -449.82810622 349.79084604 -450.53515625 353.74462891 C-451.8094325 362.66857825 -452.15809869 371.51744352 -452.16796875 380.5234375 C-452.17211288 381.69570389 -452.17625702 382.86797028 -452.18052673 384.07575989 C-452.19013489 387.84220575 -452.19019604 391.60854386 -452.1875 395.375 C-452.18756042 396.65500885 -452.18762085 397.9350177 -452.18768311 399.2538147 C-453.10304195 437.14905406 -453.10304195 437.14905406 -446 474 C-445.43938759 477.02497115 -445.00137423 480.05296631 -444.5625 483.09765625 C-444.10985448 485.9404377 -444.10985448 485.9404377 -443.08203125 488.2421875 C-441.45269532 492.3949354 -440.65086214 496.71432083 -439.6875 501.0625 C-438.07917082 508.11324646 -436.16032252 514.54583482 -433.13671875 521.13671875 C-430.98920379 526.54609492 -430.03870253 532.29135847 -429 538 C-428.34 538 -427.68 538 -427 538 C-426.01 542.455 -426.01 542.455 -425 547 C-424.34 547 -423.68 547 -423 547 C-422.49632243 548.45706726 -421.99717444 549.91570096 -421.5 551.375 C-421.2215625 552.18710937 -420.943125 552.99921875 -420.65625 553.8359375 C-420 556 -420 556 -420 558 C-419.34 558 -418.68 558 -418 558 C-417.76925781 558.53367187 -417.53851563 559.06734375 -417.30078125 559.6171875 C-414.31924338 566.42876413 -411.29426372 573.29388169 -407.375 579.625 C-406 582 -406 582 -404.6875 585.75 C-402.9193964 590.69881906 -399.98997989 594.71926377 -397 599 C-394 603.7 -394 603.7 -394 606 C-393.34 606 -392.68 606 -392 606 C-390.921875 607.46875 -390.921875 607.46875 -389.75 609.5 C-387.46177967 613.33874575 -384.90704482 616.83290555 -382.13671875 620.3359375 C-381 622 -381 622 -381 624 C-376.47426848 623.52856963 -372.67556773 622.63572178 -368.4140625 620.94921875 C-353.47115643 615.07361005 -338.36947056 610.7388405 -322.7565918 607.10571289 C-316.76190667 605.71603488 -316.76190667 605.71603488 -310.875 603.94140625 C-306.64251163 602.55549633 -302.31482647 601.85193737 -297.9375 601.0625 C-289.90285445 599.57044981 -281.94458605 597.9194973 -274 596 C-272.35697182 595.61372743 -270.71372334 595.22839127 -269.0703125 594.84375 C-259.72612615 592.64930769 -250.42514709 590.35801936 -241.1640625 587.8359375 C-237.80513744 586.94851779 -234.43436224 586.21160948 -231.03515625 585.5 C-228.81186979 584.95377991 -226.71484861 584.21608871 -224.5625 583.4375 C-219.77368115 581.76225948 -215.04199694 581.3052566 -210 581 C-210 580.34 -210 579.68 -210 579 C-209.20734741 578.75092896 -209.20734741 578.75092896 -208.39868164 578.49682617 C-205.95303738 577.72784456 -203.50776792 576.95767746 -201.0625 576.1875 C-200.23169922 575.92646484 -199.40089844 575.66542969 -198.54492188 575.39648438 C-197.71669922 575.13544922 -196.88847656 574.87441406 -196.03515625 574.60546875 C-195.20129395 574.3429834 -194.36743164 574.08049805 -193.50830078 573.81005859 C-190.31988801 572.78035706 -187.16040165 571.67248525 -184.00561523 570.54418945 C-182 570 -182 570 -178 570 C-178 569.34 -178 568.68 -178 568 C-177.05640625 567.69707031 -176.1128125 567.39414062 -175.140625 567.08203125 C-164.71015075 563.69441421 -154.55957792 559.93277212 -144.79296875 554.8984375 C-141.92395591 553.46080579 -138.94893392 552.26382882 -136 551 C-134.13307623 550.08291464 -132.2672715 549.16324262 -130.4140625 548.21875 C-128.56347388 547.28447225 -126.70195802 546.37181178 -124.8359375 545.46875 C-115.42737559 540.8792076 -106.6066836 535.62785409 -97.8125 529.9375 C-96.3275 528.9784375 -96.3275 528.9784375 -94.8125 528 C-93.49185547 527.13375 -93.49185547 527.13375 -92.14453125 526.25 C-90 525 -90 525 -88 525 C-88 524.34 -88 523.68 -88 523 C-86.66296644 522.08518756 -85.31897261 521.17980029 -83.953125 520.30859375 C-75.24891503 514.47677307 -67.61171401 507.15696012 -60 500 C-59.02740234 499.10861328 -59.02740234 499.10861328 -58.03515625 498.19921875 C-49.92630738 490.51012205 -39.56882737 478.7064821 -36 468 C-35.34 468 -34.68 468 -34 468 C-33.81824219 467.32453125 -33.63648438 466.6490625 -33.44921875 465.953125 C-33.07216797 464.61507812 -33.07216797 464.61507812 -32.6875 463.25 C-32.44386719 462.36828125 -32.20023438 461.4865625 -31.94921875 460.578125 C-31 458 -31 458 -29.5625 456.15625 C-27.36906616 453.1293113 -26.41622917 449.77793192 -25.3125 446.25 C-25.08755859 445.55261719 -24.86261719 444.85523438 -24.63085938 444.13671875 C-24.08036634 442.42667656 -23.53923763 440.71362471 -23 439 C-22.34 439 -21.68 439 -21 439 C-18.30332281 409.57883911 -18.30332281 409.57883911 -24 381 C-24.50302354 379.50405173 -25.00145254 378.00655329 -25.49609375 376.5078125 C-27.55947683 370.36773914 -29.53272223 364.52232162 -33 359 C-33.71143088 357.01548229 -34.38991336 355.01797888 -35 353 C-35.66 353 -36.32 353 -37 353 C-38.17606881 351.16924301 -39.26582382 349.28268918 -40.3125 347.375 C-42.32160464 343.81073068 -44.23971199 340.4581863 -46.9375 337.375 C-49 335 -49 335 -49 333 C-49.99 332.67 -50.98 332.34 -52 332 C-52 331.34 -52 330.68 -52 330 C-52.99 329.67 -53.98 329.34 -55 329 C-56.359375 327.43359375 -56.359375 327.43359375 -57.75 325.4375 C-63.0002513 318.21840446 -68.43544342 312.37086961 -75.5703125 306.95703125 C-78.2466498 304.80133191 -80.57741174 302.43696564 -83 300 C-85.29831119 297.89680182 -87.64429698 295.85104228 -90 293.8125 C-90.65645508 293.24442627 -91.31291016 292.67635254 -91.98925781 292.09106445 C-98.1448758 286.80687431 -104.49026679 281.8409945 -111 277 C-112.01578125 276.24460937 -113.0315625 275.48921875 -114.078125 274.7109375 C-119.28684431 270.87052845 -119.28684431 270.87052845 -124.72265625 267.3671875 C-126.88519559 266.06892203 -128.23263347 264.76736653 -130 263 C-131.97878283 261.61485202 -133.9642971 260.29730165 -136 259 C-136.90105469 258.42507813 -137.80210937 257.85015625 -138.73046875 257.2578125 C-140.65616621 256.03167488 -142.58318488 254.80760902 -144.51171875 253.5859375 C-146.35454547 252.4113886 -148.181713 251.21219133 -150 250 C-150 249.34 -150 248.68 -150 248 C-150.804375 247.79375 -151.60875 247.5875 -152.4375 247.375 C-157.05469793 245.59292361 -161.16242583 243.13828288 -165 240 C-165 239.34 -165 238.68 -165 238 C-165.85335938 237.7628125 -166.70671875 237.525625 -167.5859375 237.28125 C-171.37310073 235.8599805 -174.38937064 233.86624297 -177.625 231.5 C-182.59429821 227.89193289 -182.59429821 227.89193289 -188 225 C-188 224.34 -188 223.68 -188 223 C-189.98 222.34 -191.96 221.68 -194 221 C-194 220.34 -194 219.68 -194 219 C-194.87785156 218.74992188 -195.75570313 218.49984375 -196.66015625 218.2421875 C-200.14527012 216.94596971 -202.50060516 215.38414988 -205.4375 213.125 C-209.50625709 210.06787377 -213.51346579 207.39281824 -218 205 C-218 204.34 -218 203.68 -218 203 C-219.0209375 202.6596875 -219.0209375 202.6596875 -220.0625 202.3125 C-223.6988709 200.68773854 -227.02829263 198.67196743 -230 196 C-230 195.34 -230 194.68 -230 194 C-230.804375 193.71125 -231.60875 193.4225 -232.4375 193.125 C-235 192 -235 192 -236 190 C-237.67471292 189.06216076 -239.35028967 188.12581368 -241.03125 187.19921875 C-249.15233975 182.25244384 -255.35425235 174.70214388 -261.1328125 167.3046875 C-262.87808285 165.05978576 -262.87808285 165.05978576 -264.578125 163.45703125 C-269.61892798 158.29159303 -271.61629477 152.03459585 -272 145 C-268.1936543 145.67170806 -264.64793184 146.72746564 -261 148 C-261 148.66 -261 149.32 -261 150 C-260.40832031 150.10957031 -259.81664062 150.21914062 -259.20703125 150.33203125 C-254.53957891 151.26856736 -250.99067357 152.30359894 -247 155 C-241.69619569 157.76720225 -236.22708357 160.06896269 -230.7109375 162.375 C-227.08091099 163.93175525 -223.57723021 165.69716876 -220.0625 167.5 C-216.3779164 169.37786476 -212.74755287 171.19915608 -208.8125 172.5 C-204.30926465 174.04313453 -200.5404639 176.73615671 -196.61328125 179.37890625 C-194.12843875 180.92032574 -191.74312553 182.00654373 -189 183 C-189 183.66 -189 184.32 -189 185 C-187.948125 185.268125 -186.89625 185.53625 -185.8125 185.8125 C-182.31644808 186.9014342 -180.04533299 188.04228594 -177 190 C-171.28400147 193.25300729 -165.4914746 196.37210078 -159.71484375 199.515625 C-156.45600323 201.29743708 -153.2122218 203.10529618 -149.97265625 204.921875 C-148.00418923 205.99771044 -146.01255268 207.0094819 -144 208 C-144 208.66 -144 209.32 -144 210 C-143.195625 210.20625 -142.39125 210.4125 -141.5625 210.625 C-137.69381834 212.11817538 -134.7405275 214.08469802 -131.34765625 216.4296875 C-129.15460922 217.89658418 -126.94499746 219.18412033 -124.625 220.4375 C-116.86186911 224.6571809 -109.52413553 229.60205946 -102.1953125 234.52734375 C-100.67419217 235.54773942 -99.14775949 236.56024335 -97.6171875 237.56640625 C-94.40910252 239.67866022 -91.29374764 241.76090308 -88.3125 244.1875 C-85.69959778 246.23545038 -83.00332418 247.60310503 -80 249 C-80 249.66 -80 250.32 -80 251 C-79.46375 251.268125 -78.9275 251.53625 -78.375 251.8125 C-75.58333333 253.20833333 -72.79166667 254.60416667 -70 256 C-70 256.66 -70 257.32 -70 258 C-69.34 258 -68.68 258 -68 258 C-68 258.66 -68 259.32 -68 260 C-67.27941406 260.24621094 -66.55882812 260.49242187 -65.81640625 260.74609375 C-62.67941447 262.14272948 -60.54456267 263.83293056 -57.9375 266.0625 C-52.99940237 270.21210572 -47.94077456 274.06466541 -42.7265625 277.859375 C-39.91807206 280.06432165 -37.49470232 282.44914683 -35 285 C-33.51130476 286.34594364 -32.01168876 287.67993376 -30.5 289 C-27.19877372 291.88276098 -24.08297413 294.88481569 -21 298 C-19.97236089 299.0179444 -18.9436626 300.03482034 -17.9140625 301.05078125 C-6.63164014 312.21930844 3.07460458 323.71800828 11.67578125 337.125 C12.93777364 339.02935846 12.93777364 339.02935846 14.55859375 340.53515625 C16.56349912 342.57266171 17.54655268 345.01104312 18.765625 347.56640625 C20.21410273 350.42210759 21.84798371 353.13222937 23.5 355.875 C26.57941113 361.09947102 28.94664724 366.30485179 31 372 C31.49888407 373.33375128 31.99883163 374.66710539 32.5 376 C32.72365234 376.60650391 32.94730469 377.21300781 33.17773438 377.83789062 C34.03618378 380.09514358 34.96318493 382.31715066 35.890625 384.546875 C38.08185544 390.01692463 39.71932983 395.56465367 41.25 401.25 C41.518125 402.20390625 41.78625 403.1578125 42.0625 404.140625 C43.34772562 408.86186197 44.36485873 413.05782266 44 418 C44.66 418 45.32 418 46 418 C48.18144735 436.30857594 48.67005863 453.70876199 46.625 472.0625 C46.43611206 473.76817139 46.43611206 473.76817139 46.2434082 475.50830078 C46.11409912 476.56903809 45.98479004 477.62977539 45.8515625 478.72265625 C45.73635254 479.66890869 45.62114258 480.61516113 45.50244141 481.59008789 C45 484 45 484 43 487 C42.40260055 489.04705225 41.86590017 491.11233108 41.375 493.1875 C40.98441406 494.81751953 40.98441406 494.81751953 40.5859375 496.48046875 C40.39257812 497.31191406 40.19921875 498.14335938 40 499 C39.34 499 38.68 499 38 499 C37.938125 499.804375 37.87625 500.60875 37.8125 501.4375 C36.72602422 506.2012784 34.50212748 509.83870777 32 514 C31.49726562 514.84304688 30.99453125 515.68609375 30.4765625 516.5546875 C29.45625404 518.25865442 28.43026527 519.95923378 27.3984375 521.65625 C26.22559457 523.62190854 25.13672212 525.60509517 24.0625 527.625 C22.41350977 530.32334766 20.88249925 532.39342702 18.80859375 534.73046875 C18.18525146 535.43300781 17.56190918 536.13554688 16.91967773 536.859375 C15.96943726 537.91898438 15.96943726 537.91898438 15 539 C14.42773682 539.639375 13.85547363 540.27875 13.26586914 540.9375 C2.05295838 553.35736159 -9.86695557 564.35001347 -23.3125 574.3125 C-23.95316406 574.78727783 -24.59382812 575.26205566 -25.25390625 575.7512207 C-29.74592497 579 -29.74592497 579 -32 579 C-32 579.66 -32 580.32 -32 581 C-33.85043427 582.19820784 -35.75790262 583.30894982 -37.6875 584.375 C-41.78810913 586.64810933 -45.36338978 589.05043666 -49 592 C-50.53830234 592.95671831 -52.10025507 593.87688055 -53.6875 594.75 C-54.45449219 595.17796875 -55.22148438 595.6059375 -56.01171875 596.046875 C-58 597 -58 597 -60 597 C-60.33 597.99 -60.66 598.98 -61 600 C-63.14453125 601.0625 -63.14453125 601.0625 -65.8125 602 C-68.60666337 602.99054536 -70.76975789 603.82489814 -73.13671875 605.625 C-75 607 -75 607 -78 607 C-78 607.66 -78 608.32 -78 609 C-79.12921875 609.51046875 -79.12921875 609.51046875 -80.28125 610.03125 C-88.69199984 613.86916497 -96.96655877 617.93474269 -105.21826172 622.10107422 C-108.33418279 623.67312428 -111.45732612 625.2306547 -114.58203125 626.78515625 C-116.35641839 627.67664963 -118.12367809 628.58236632 -119.88671875 629.49609375 C-136.44918953 638 -136.44918953 638 -142 638 C-142 638.66 -142 639.32 -142 640 C-143.43554025 640.50559908 -144.8735202 641.0042749 -146.3125 641.5 C-147.11300781 641.7784375 -147.91351563 642.056875 -148.73828125 642.34375 C-151 643 -151 643 -154 643 C-154 643.66 -154 644.32 -154 645 C-165.18755554 649.26564618 -176.43872989 653.31991151 -187.75732422 657.22460938 C-189.73748117 657.90923582 -191.71467973 658.602406 -193.69140625 659.296875 C-198.81484562 661.06667383 -203.59263841 662.50842167 -209 663 C-209 663.66 -209 664.32 -209 665 C-210.29035156 665.25394531 -211.58070313 665.50789062 -212.91015625 665.76953125 C-214.62768437 666.11679103 -216.34512788 666.46446954 -218.0625 666.8125 C-218.91005859 666.97814453 -219.75761719 667.14378906 -220.63085938 667.31445312 C-225.79015582 668.37021649 -230.21207779 669.82263538 -235 672 C-244.90020986 675.41344659 -254.62897915 676.97636677 -265 678 C-265 678.66 -265 679.32 -265 680 C-276.21072825 682.26382053 -287.42788066 684.4843178 -298.66674805 686.60449219 C-302.85814085 687.39621355 -307.04491135 688.2050632 -311.2265625 689.046875 C-314.89416813 689.78354613 -318.56306641 690.49036389 -322.25 691.125 C-323.68085938 691.37636719 -323.68085938 691.37636719 -325.140625 691.6328125 C-328.12448307 692.01598553 -330.99498763 692.06223398 -334 692 C-334 692.66 -334 693.32 -334 694 C-334.58378418 694.08040527 -335.16756836 694.16081055 -335.76904297 694.24365234 C-338.47146759 694.61767005 -341.17322565 694.99631465 -343.875 695.375 C-345.25171875 695.56449219 -345.25171875 695.56449219 -346.65625 695.7578125 C-347.57148438 695.88671875 -348.48671875 696.015625 -349.4296875 696.1484375 C-350.67081299 696.32125244 -350.67081299 696.32125244 -351.93701172 696.49755859 C-354.56071904 696.92794196 -357.1383395 697.44393743 -359.73925781 697.99072266 C-364.72716443 698.99987155 -369.67571275 699.56693117 -374.7421875 700 C-375.63181183 700.08121094 -376.52143616 700.16242187 -377.4380188 700.24609375 C-380.24991501 700.50248548 -383.06235124 700.7520103 -385.875 701 C-399.48668105 702.08002511 -399.48668105 702.08002511 -412.98828125 704.02734375 C-421.99367893 705.66425239 -431.19194586 705.97052028 -440.3125 706.5625 C-443.15584478 706.75063944 -445.99905222 706.94051405 -448.84208679 707.13328552 C-450.59824759 707.25201041 -452.35459935 707.36795596 -454.11116028 707.48060608 C-458.78474859 707.79270707 -463.3624851 708.32163562 -468 709 C-473.32632118 709.45933481 -478.6627153 709.76121347 -484 710.0625 C-484.78281342 710.10735535 -485.56562683 710.15221069 -486.37216187 710.19842529 C-508.23239875 711.41286765 -530.11511883 711.18635191 -552 711 C-549.47484114 708.40388951 -547.57639634 706.56010588 -544.1875 705.25 C-539.89618064 703.46018864 -535.82971189 701.34619377 -531.75 699.125 C-525.90947082 695.95731749 -519.98590797 693.10148051 -513.92578125 690.37109375 C-511.30634473 689.14356075 -508.81739857 687.81827781 -506.3125 686.375 C-495.1717233 680 -495.1717233 680 -490 680 C-490 679.34 -490 678.68 -490 678 C-488.88882813 677.48050781 -487.77765625 676.96101562 -486.6328125 676.42578125 C-485.130104 675.72157676 -483.62750723 675.01713382 -482.125 674.3125 C-481.34866211 673.94890381 -480.57232422 673.58530762 -479.77246094 673.21069336 C-474.81734625 670.88133505 -469.91569773 668.47685401 -465.078125 665.91015625 C-462.74194074 664.88697781 -460.50975171 664.41682939 -458 664 C-458 663.34 -458 662.68 -458 662 C-454.7 661.01 -451.4 660.02 -448 659 C-448 658.34 -448 657.68 -448 657 C-447.06542969 656.59910156 -446.13085938 656.19820312 -445.16796875 655.78515625 C-434.32529942 651.10296747 -423.64945098 646.10479118 -413 641 C-413.63439148 637.57759927 -414.95359848 635.29550458 -416.9140625 632.4375 C-417.80424072 631.12616089 -417.80424072 631.12616089 -418.71240234 629.78833008 C-419.34355957 628.86818115 -419.9747168 627.94803223 -420.625 627 C-435 605.74754187 -435 605.74754187 -435 602 C-435.66 602 -436.32 602 -437 602 C-437.268125 600.865625 -437.53625 599.73125 -437.8125 598.5625 C-438.204375 597.386875 -438.59625 596.21125 -439 595 C-439.99 594.67 -440.98 594.34 -442 594 C-442.68939809 591.67328146 -443.35466922 589.33932406 -444 587 C-444.44214844 586.56171875 -444.88429688 586.1234375 -445.33984375 585.671875 C-447.70009724 583.2949609 -448.99811393 580.57807435 -450.5625 577.625 C-451.46162109 575.94277344 -451.46162109 575.94277344 -452.37890625 574.2265625 C-454.59403034 569.8176649 -456 566.9805961 -456 562 C-456.66 562 -457.32 562 -458 562 C-460.33206173 555.77327679 -462.48769704 549.54652005 -464.33984375 543.16015625 C-465.0132421 540.84400481 -465.0132421 540.84400481 -466.1875 538.0625 C-467 536 -467 536 -467 533 C-467.66 533 -468.32 533 -469 533 C-469.25394531 532.02160156 -469.50789063 531.04320312 -469.76953125 530.03515625 C-471.46258887 523.56752754 -473.15922565 517.14118769 -475.38671875 510.83203125 C-476.85787948 506.43728996 -477.08960015 502.65920805 -477 498 C-477.66 498 -478.32 498 -479 498 C-484.52933337 481.04712002 -486.37809064 463.75658457 -487 446 C-487.66 446 -488.32 446 -489 446 C-489.7610326 436.18822899 -490.13954423 426.47446193 -490.09765625 416.62890625 C-490.0962413 415.34056381 -490.09482635 414.05222137 -490.09336853 412.72483826 C-490.08961294 409.35649549 -490.0798453 405.98819825 -490.06866455 402.61987305 C-490.05829766 399.15999975 -490.05383874 395.70011884 -490.04882812 392.24023438 C-490.03821414 385.49347129 -490.02122539 378.74673785 -490 372 C-489.34 372 -488.68 372 -488 372 C-488.03480469 371.13503906 -488.06960938 370.27007812 -488.10546875 369.37890625 C-488.36423309 357.34020331 -486.95377748 345.63868658 -485.35595703 333.71875 C-485.04935231 331.37694603 -484.78411048 329.03508156 -484.52734375 326.6875 C-483.99422014 322.95958379 -483.07394077 319.60753343 -482 316 C-481.31004648 313.1918247 -480.65413986 310.37649135 -479.99560547 307.56079102 C-477.79955808 298.17761408 -475.50113786 288.83530807 -472.875 279.5625 C-472.64586914 278.74249512 -472.41673828 277.92249023 -472.18066406 277.07763672 C-470.13619397 269.99159039 -467.44213689 263.23038664 -464.4375 256.5 C-463.25293031 253.61583032 -462.35079466 250.86380195 -461.5 247.875 C-460.42953423 244.16479926 -459.08649601 241.26581984 -457 238 C-456.28856912 236.01548229 -455.61008664 234.01797888 -455 232 C-454.34 232 -453.68 232 -453 232 C-452.82984375 231.3709375 -452.6596875 230.741875 -452.484375 230.09375 C-451.11323776 225.25100998 -449.59329149 220.78158781 -447.234375 216.3359375 C-444.97879746 212.06747114 -442.90540703 207.70239889 -440.78125 203.3671875 C-439.01581872 200.02990293 -437.24655874 197.02917141 -435 194 C-434.34 194 -433.68 194 -433 194 C-432.86464844 193.46632813 -432.72929687 192.93265625 -432.58984375 192.3828125 C-430.94627421 186.69429036 -428.48740822 182.45040791 -424.9765625 177.70703125 C-422.03688972 173.68095766 -419.38894565 169.46920009 -416.69921875 165.2734375 C-416.13847656 164.52320313 -415.57773437 163.77296875 -415 163 C-414.34 163 -413.68 163 -413 163 C-412.75378906 162.11699219 -412.50757813 161.23398438 -412.25390625 160.32421875 C-410.91957713 156.78679169 -409.38858247 154.66993476 -406.9375 151.8125 C-406.13183594 150.86117187 -405.32617188 149.90984375 -404.49609375 148.9296875 C-403.67238281 147.96289062 -402.84867188 146.99609375 -402 146 C-400.4966576 144.14854229 -398.99658572 142.29442359 -397.5 140.4375 C-393.82098852 135.93665 -389.99896965 131.59568182 -386.078125 127.3046875 C-384.18266732 125.20258218 -382.36643451 123.05548394 -380.5625 120.875 C-379.716875 119.92625 -378.87125 118.9775 -378 118 C-377.34 118 -376.68 118 -376 118 C-375.77570313 117.44957031 -375.55140625 116.89914063 -375.3203125 116.33203125 C-373.58906024 113.27416852 -371.37762275 111.15178174 -368.875 108.6875 C-368.3807251 108.20039551 -367.8864502 107.71329102 -367.37719727 107.21142578 C-364.02410418 103.93171049 -360.58650815 100.7821984 -357.01953125 97.73828125 C-354.67935811 95.7240123 -352.40532345 93.64422608 -350.125 91.5625 C-327.29713983 71 -327.29713983 71 -322 71 C-321.67 70.01 -321.34 69.02 -321 68 C-318.77734375 66.3515625 -318.77734375 66.3515625 -315.9375 64.625 C-314.9475 64.01785156 -313.9575 63.41070312 -312.9375 62.78515625 C-311.968125 62.19605469 -310.99875 61.60695313 -310 61 C-307.85088407 59.61891748 -305.70385445 58.2347167 -303.55859375 56.84765625 C-302 56 -302 56 -300 56 C-300 55.34 -300 54.68 -300 54 C-298.27473958 53.31640625 -296.54947917 52.6328125 -294.82421875 51.94921875 C-292.79887008 50.89534353 -291.5983041 49.61499657 -290 48 C-288.2734375 47.0078125 -288.2734375 47.0078125 -286.375 46.125 C-283.3135789 44.65619319 -280.33474081 43.10235421 -277.375 41.4375 C-267.65798611 36 -267.65798611 36 -265 36 C-265 35.34 -265 34.68 -265 34 C-260.05 32.515 -260.05 32.515 -255 31 C-255 30.34 -255 29.68 -255 29 C-252.03 28.34 -249.06 27.68 -246 27 C-246 26.34 -246 25.68 -246 25 C-244.77023437 24.60167969 -243.54046875 24.20335937 -242.2734375 23.79296875 C-240.64054528 23.25805578 -239.00773721 22.72288592 -237.375 22.1875 C-236.16263672 21.79594727 -236.16263672 21.79594727 -234.92578125 21.39648438 C-231.34086566 20.21608534 -228.03677176 19.01873035 -224.6640625 17.30078125 C-222 16 -222 16 -218 16 C-218 15.34 -218 14.68 -218 14 C-216.20755859 13.51080078 -216.20755859 13.51080078 -214.37890625 13.01171875 C-212.77328675 12.57086117 -211.16782822 12.12941708 -209.5625 11.6875 C-208.73371338 11.4596582 -207.90492676 11.23181641 -207.05102539 10.99707031 C-202.964362 9.86289152 -198.92985677 8.68810701 -194.9375 7.25 C-190.66634924 5.75001253 -186.50316571 5.3573941 -182 5 C-182 4.34 -182 3.68 -182 3 C-166.95033631 -0.64453626 -152.03883345 -3.15212922 -136.62890625 -4.64404297 C-133.46012465 -4.95486667 -130.29464035 -5.28875553 -127.12905884 -5.63035583 C-86.06392201 -10.01468863 -39.92100218 -11.69690099 0 0 Z " fill="#A7A19F" transform="translate(571,89)"/>
<path d="M0 0 C3.8063457 0.67170806 7.35206816 1.72746564 11 3 C11 3.66 11 4.32 11 5 C11.59167969 5.10957031 12.18335938 5.21914062 12.79296875 5.33203125 C17.46042109 6.26856736 21.00932643 7.30359894 25 10 C30.30380431 12.76720225 35.77291643 15.06896269 41.2890625 17.375 C44.91908901 18.93175525 48.42276979 20.69716876 51.9375 22.5 C55.6220836 24.37786476 59.25244713 26.19915608 63.1875 27.5 C67.69073535 29.04313453 71.4595361 31.73615671 75.38671875 34.37890625 C77.87156125 35.92032574 80.25687447 37.00654373 83 38 C83 38.66 83 39.32 83 40 C84.051875 40.268125 85.10375 40.53625 86.1875 40.8125 C89.68355192 41.9014342 91.95466701 43.04228594 95 45 C100.71599853 48.25300729 106.5085254 51.37210078 112.28515625 54.515625 C115.54399677 56.29743708 118.7877782 58.10529618 122.02734375 59.921875 C123.99581077 60.99771044 125.98744732 62.0094819 128 63 C128 63.66 128 64.32 128 65 C128.804375 65.20625 129.60875 65.4125 130.4375 65.625 C134.30618166 67.11817538 137.2594725 69.08469802 140.65234375 71.4296875 C142.84539078 72.89658418 145.05500254 74.18412033 147.375 75.4375 C155.13813089 79.6571809 162.47586447 84.60205946 169.8046875 89.52734375 C171.32580783 90.54773942 172.85224051 91.56024335 174.3828125 92.56640625 C177.59089748 94.67866022 180.70625236 96.76090308 183.6875 99.1875 C186.30040222 101.23545038 188.99667582 102.60310503 192 104 C192 104.66 192 105.32 192 106 C192.53625 106.268125 193.0725 106.53625 193.625 106.8125 C196.41666667 108.20833333 199.20833333 109.60416667 202 111 C202 111.66 202 112.32 202 113 C202.66 113 203.32 113 204 113 C204 113.66 204 114.32 204 115 C204.72058594 115.24621094 205.44117188 115.49242187 206.18359375 115.74609375 C209.32058553 117.14272948 211.45543733 118.83293056 214.0625 121.0625 C219.00059763 125.21210572 224.05922544 129.06466541 229.2734375 132.859375 C232.08192794 135.06432165 234.50529768 137.44914683 237 140 C238.48869524 141.34594364 239.98831124 142.67993376 241.5 144 C244.80122628 146.88276098 247.91702587 149.88481569 251 153 C252.02763911 154.0179444 253.0563374 155.03482034 254.0859375 156.05078125 C265.36835986 167.21930844 275.07460458 178.71800828 283.67578125 192.125 C284.93777364 194.02935846 284.93777364 194.02935846 286.55859375 195.53515625 C288.56349912 197.57266171 289.54655268 200.01104312 290.765625 202.56640625 C292.21410273 205.42210759 293.84798371 208.13222937 295.5 210.875 C298.57941113 216.09947102 300.94664724 221.30485179 303 227 C303.49888407 228.33375128 303.99883163 229.66710539 304.5 231 C304.72365234 231.60650391 304.94730469 232.21300781 305.17773438 232.83789062 C306.03618378 235.09514358 306.96318493 237.31715066 307.890625 239.546875 C310.08185544 245.01692463 311.71932983 250.56465367 313.25 256.25 C313.518125 257.20390625 313.78625 258.1578125 314.0625 259.140625 C315.34772562 263.86186197 316.36485873 268.05782266 316 273 C316.66 273 317.32 273 318 273 C320.18144735 291.30857594 320.67005863 308.70876199 318.625 327.0625 C318.43611206 328.76817139 318.43611206 328.76817139 318.2434082 330.50830078 C318.11409912 331.56903809 317.98479004 332.62977539 317.8515625 333.72265625 C317.73635254 334.66890869 317.62114258 335.61516113 317.50244141 336.59008789 C317 339 317 339 315 342 C314.40260055 344.04705225 313.86590017 346.11233108 313.375 348.1875 C312.98441406 349.81751953 312.98441406 349.81751953 312.5859375 351.48046875 C312.39257812 352.31191406 312.19921875 353.14335938 312 354 C311.34 354 310.68 354 310 354 C309.938125 354.804375 309.87625 355.60875 309.8125 356.4375 C308.72602422 361.2012784 306.50212748 364.83870777 304 369 C303.49726562 369.84304688 302.99453125 370.68609375 302.4765625 371.5546875 C301.45625404 373.25865442 300.43026527 374.95923378 299.3984375 376.65625 C298.22559457 378.62190854 297.13672212 380.60509517 296.0625 382.625 C294.41350977 385.32334766 292.88249925 387.39342702 290.80859375 389.73046875 C290.18525146 390.43300781 289.56190918 391.13554688 288.91967773 391.859375 C287.96943726 392.91898438 287.96943726 392.91898438 287 394 C286.42773682 394.639375 285.85547363 395.27875 285.26586914 395.9375 C274.05295838 408.35736159 262.13304443 419.35001347 248.6875 429.3125 C248.04683594 429.78727783 247.40617188 430.26205566 246.74609375 430.7512207 C242.25407503 434 242.25407503 434 240 434 C240 434.66 240 435.32 240 436 C238.14956573 437.19820784 236.24209738 438.30894982 234.3125 439.375 C230.21189087 441.64810933 226.63661022 444.05043666 223 447 C221.46169766 447.95671831 219.89974493 448.87688055 218.3125 449.75 C217.54550781 450.17796875 216.77851562 450.6059375 215.98828125 451.046875 C214 452 214 452 212 452 C211.67 452.99 211.34 453.98 211 455 C208.85546875 456.0625 208.85546875 456.0625 206.1875 457 C203.39333663 457.99054536 201.23024211 458.82489814 198.86328125 460.625 C197 462 197 462 194 462 C194 462.66 194 463.32 194 464 C193.2471875 464.3403125 192.494375 464.680625 191.71875 465.03125 C183.30800016 468.86916497 175.03344123 472.93474269 166.78173828 477.10107422 C163.66581721 478.67312428 160.54267388 480.2306547 157.41796875 481.78515625 C155.64358161 482.67664963 153.87632191 483.58236632 152.11328125 484.49609375 C135.55081047 493 135.55081047 493 130 493 C130 493.66 130 494.32 130 495 C128.56445975 495.50559908 127.1264798 496.0042749 125.6875 496.5 C124.88699219 496.7784375 124.08648437 497.056875 123.26171875 497.34375 C121 498 121 498 118 498 C118 498.66 118 499.32 118 500 C106.81244446 504.26564618 95.56127011 508.31991151 84.24267578 512.22460938 C82.26251883 512.90923582 80.28532027 513.602406 78.30859375 514.296875 C73.18515438 516.06667383 68.40736159 517.50842167 63 518 C63 518.66 63 519.32 63 520 C61.70964844 520.25394531 60.41929687 520.50789062 59.08984375 520.76953125 C57.37231563 521.11679103 55.65487212 521.46446954 53.9375 521.8125 C53.08994141 521.97814453 52.24238281 522.14378906 51.36914062 522.31445312 C46.20984418 523.37021649 41.78792221 524.82263538 37 527 C27.09979014 530.41344659 17.37102085 531.97636677 7 533 C7 533.66 7 534.32 7 535 C-4.21072825 537.26382053 -15.42788066 539.4843178 -26.66674805 541.60449219 C-30.85814085 542.39621355 -35.04491135 543.2050632 -39.2265625 544.046875 C-42.89416813 544.78354613 -46.56306641 545.49036389 -50.25 546.125 C-51.68085938 546.37636719 -51.68085938 546.37636719 -53.140625 546.6328125 C-56.12448307 547.01598553 -58.99498763 547.06223398 -62 547 C-62 547.66 -62 548.32 -62 549 C-62.58378418 549.08040527 -63.16756836 549.16081055 -63.76904297 549.24365234 C-66.47146759 549.61767005 -69.17322565 549.99631465 -71.875 550.375 C-73.25171875 550.56449219 -73.25171875 550.56449219 -74.65625 550.7578125 C-75.57148438 550.88671875 -76.48671875 551.015625 -77.4296875 551.1484375 C-78.67081299 551.32125244 -78.67081299 551.32125244 -79.93701172 551.49755859 C-82.56071904 551.92794196 -85.1383395 552.44393743 -87.73925781 552.99072266 C-92.72716443 553.99987155 -97.67571275 554.56693117 -102.7421875 555 C-103.63181183 555.08121094 -104.52143616 555.16242187 -105.4380188 555.24609375 C-108.24991501 555.50248548 -111.06235124 555.7520103 -113.875 556 C-127.48668105 557.08002511 -127.48668105 557.08002511 -140.98828125 559.02734375 C-149.99367893 560.66425239 -159.19194586 560.97052028 -168.3125 561.5625 C-171.15584478 561.75063944 -173.99905222 561.94051405 -176.84208679 562.13328552 C-178.59824759 562.25201041 -180.35459935 562.36795596 -182.11116028 562.48060608 C-186.78474859 562.79270707 -191.3624851 563.32163562 -196 564 C-201.32632118 564.45933481 -206.6627153 564.76121347 -212 565.0625 C-212.78281342 565.10735535 -213.56562683 565.15221069 -214.37216187 565.19842529 C-236.23239875 566.41286765 -258.11511883 566.18635191 -280 566 C-277.47484114 563.40388951 -275.57639634 561.56010588 -272.1875 560.25 C-267.89618064 558.46018864 -263.82971189 556.34619377 -259.75 554.125 C-253.90947082 550.95731749 -247.98590797 548.10148051 -241.92578125 545.37109375 C-239.30634473 544.14356075 -236.81739857 542.81827781 -234.3125 541.375 C-223.1717233 535 -223.1717233 535 -218 535 C-218 534.34 -218 533.68 -218 533 C-216.88882813 532.48050781 -215.77765625 531.96101562 -214.6328125 531.42578125 C-213.130104 530.72157676 -211.62750723 530.01713382 -210.125 529.3125 C-209.34866211 528.94890381 -208.57232422 528.58530762 -207.77246094 528.21069336 C-202.81734625 525.88133505 -197.91569773 523.47685401 -193.078125 520.91015625 C-190.74194074 519.88697781 -188.50975171 519.41682939 -186 519 C-186 518.34 -186 517.68 -186 517 C-182.7 516.01 -179.4 515.02 -176 514 C-176 513.34 -176 512.68 -176 512 C-174.68515625 511.43345703 -174.68515625 511.43345703 -173.34375 510.85546875 C-172.06223367 510.30009331 -170.78101141 509.74403908 -169.5 509.1875 C-168.80817627 508.88706787 -168.11635254 508.58663574 -167.40356445 508.27709961 C-162.80939847 506.26774159 -158.2470267 504.19822856 -153.69921875 502.0859375 C-152.62285156 501.58682861 -151.54648438 501.08771973 -150.4375 500.57348633 C-148.28549308 499.5729777 -146.13571119 498.56766804 -143.98828125 497.55737305 C-142.99570313 497.0962915 -142.003125 496.63520996 -140.98046875 496.16015625 C-140.09254639 495.74386963 -139.20462402 495.32758301 -138.28979492 494.89868164 C-136 494 -136 494 -133 494 C-133 493.34 -133 492.68 -133 492 C-130.60496313 490.87327825 -128.2090129 489.74857442 -125.8125 488.625 C-125.13896484 488.30789063 -124.46542969 487.99078125 -123.77148438 487.6640625 C-121.01901309 486.37510034 -118.28177955 485.11210584 -115.45703125 483.98828125 C-112.84016467 482.93571011 -110.32170087 481.72181514 -107.78637695 480.48779297 C-101.80670355 477.59304751 -96.1120875 475.28756468 -89.62890625 473.73046875 C-86.8423114 472.95618459 -84.38019934 471.88717365 -81.75 470.6875 C-70.68643892 465.89619402 -58.4753294 463.21823691 -46.6640625 460.94921875 C-43.99590915 460.43509128 -41.58873131 459.8621955 -39.00390625 458.99609375 C-34.72657235 457.57773205 -30.36637218 456.86123348 -25.9375 456.0625 C-17.90285445 454.57044981 -9.94458605 452.9194973 -2 451 C-0.35697182 450.61372743 1.28627666 450.22839127 2.9296875 449.84375 C12.27387385 447.64930769 21.57485291 445.35801936 30.8359375 442.8359375 C34.19486256 441.94851779 37.56563776 441.21160948 40.96484375 440.5 C43.18813021 439.95377991 45.28515139 439.21608871 47.4375 438.4375 C52.22631885 436.76225948 56.95800306 436.3052566 62 436 C62 435.34 62 434.68 62 434 C62.52843506 433.83395264 63.05687012 433.66790527 63.60131836 433.49682617 C66.04696262 432.72784456 68.49223208 431.95767746 70.9375 431.1875 C72.18370117 430.79594727 72.18370117 430.79594727 73.45507812 430.39648438 C74.69741211 430.00493164 74.69741211 430.00493164 75.96484375 429.60546875 C76.79870605 429.3429834 77.63256836 429.08049805 78.49169922 428.81005859 C81.68011199 427.78035706 84.83959835 426.67248525 87.99438477 425.54418945 C90 425 90 425 94 425 C94 424.34 94 423.68 94 423 C94.94359375 422.69707031 95.8871875 422.39414062 96.859375 422.08203125 C107.28984925 418.69441421 117.44042208 414.93277212 127.20703125 409.8984375 C130.07604409 408.46080579 133.05106608 407.26382882 136 406 C137.86692377 405.08291464 139.7327285 404.16324262 141.5859375 403.21875 C143.43652612 402.28447225 145.29804198 401.37181178 147.1640625 400.46875 C156.57262441 395.8792076 165.3933164 390.62785409 174.1875 384.9375 C175.1775 384.298125 176.1675 383.65875 177.1875 383 C178.50814453 382.13375 178.50814453 382.13375 179.85546875 381.25 C182 380 182 380 184 380 C184 379.34 184 378.68 184 378 C185.33703356 377.08518756 186.68102739 376.17980029 188.046875 375.30859375 C196.75108497 369.47677307 204.38828599 362.15696012 212 355 C212.97259766 354.10861328 212.97259766 354.10861328 213.96484375 353.19921875 C222.07369262 345.51012205 232.43117263 333.7064821 236 323 C236.66 323 237.32 323 238 323 C238.18175781 322.32453125 238.36351562 321.6490625 238.55078125 320.953125 C238.92783203 319.61507812 238.92783203 319.61507812 239.3125 318.25 C239.55613281 317.36828125 239.79976562 316.4865625 240.05078125 315.578125 C241 313 241 313 242.4375 311.15625 C244.63093384 308.1293113 245.58377083 304.77793192 246.6875 301.25 C246.91244141 300.55261719 247.13738281 299.85523438 247.36914062 299.13671875 C247.91963366 297.42667656 248.46076237 295.71362471 249 294 C249.66 294 250.32 294 251 294 C253.69667719 264.57883911 253.69667719 264.57883911 248 236 C247.49697646 234.50405173 246.99854746 233.00655329 246.50390625 231.5078125 C244.44052317 225.36773914 242.46727777 219.52232162 239 214 C238.28856912 212.01548229 237.61008664 210.01797888 237 208 C236.34 208 235.68 208 235 208 C233.82393119 206.16924301 232.73417618 204.28268918 231.6875 202.375 C229.67839536 198.81073068 227.76028801 195.4581863 225.0625 192.375 C223 190 223 190 223 188 C222.01 187.67 221.02 187.34 220 187 C220 186.34 220 185.68 220 185 C219.01 184.67 218.02 184.34 217 184 C215.640625 182.43359375 215.640625 182.43359375 214.25 180.4375 C208.9997487 173.21840446 203.56455658 167.37086961 196.4296875 161.95703125 C193.7533502 159.80133191 191.42258826 157.43696564 189 155 C186.70168881 152.89680182 184.35570302 150.85104228 182 148.8125 C181.34354492 148.24442627 180.68708984 147.67635254 180.01074219 147.09106445 C173.8551242 141.80687431 167.50973321 136.8409945 161 132 C159.98421875 131.24460937 158.9684375 130.48921875 157.921875 129.7109375 C152.71315569 125.87052845 152.71315569 125.87052845 147.27734375 122.3671875 C145.11480441 121.06892203 143.76736653 119.76736653 142 118 C140.02121717 116.61485202 138.0357029 115.29730165 136 114 C134.64841797 113.13761719 134.64841797 113.13761719 133.26953125 112.2578125 C131.34383379 111.03167488 129.41681512 109.80760902 127.48828125 108.5859375 C125.64545453 107.4113886 123.818287 106.21219133 122 105 C122 104.34 122 103.68 122 103 C121.195625 102.79375 120.39125 102.5875 119.5625 102.375 C114.94530207 100.59292361 110.83757417 98.13828288 107 95 C107 94.34 107 93.68 107 93 C106.14664062 92.7628125 105.29328125 92.525625 104.4140625 92.28125 C100.62689927 90.8599805 97.61062936 88.86624297 94.375 86.5 C89.40570179 82.89193289 89.40570179 82.89193289 84 80 C84 79.34 84 78.68 84 78 C82.02 77.34 80.04 76.68 78 76 C78 75.34 78 74.68 78 74 C77.12214844 73.74992187 76.24429687 73.49984375 75.33984375 73.2421875 C71.85472988 71.94596971 69.49939484 70.38414988 66.5625 68.125 C62.49374291 65.06787377 58.48653421 62.39281824 54 60 C54 59.34 54 58.68 54 58 C53.319375 57.773125 52.63875 57.54625 51.9375 57.3125 C48.3011291 55.68773854 44.97170737 53.67196743 42 51 C42 50.34 42 49.68 42 49 C40.7934375 48.566875 40.7934375 48.566875 39.5625 48.125 C37 47 37 47 36 45 C34.32528708 44.06216076 32.64971033 43.12581368 30.96875 42.19921875 C22.84766025 37.25244384 16.64574765 29.70214388 10.8671875 22.3046875 C9.12191715 20.05978576 9.12191715 20.05978576 7.421875 18.45703125 C2.38107202 13.29159303 0.38370523 7.03459585 0 0 Z " fill="#63B05A" transform="translate(299,234)"/>
<path d="M0 0 C1.2375 0.4125 2.475 0.825 3.75 1.25 C9.10395766 3.28408234 14.0307889 6.17741502 19 9 C19 9.66 19 10.32 19 11 C20.03060547 11.32484375 20.03060547 11.32484375 21.08203125 11.65625 C24.84859046 13.39078329 27.59264291 15.7741451 30.6875 18.5 C31.60789062 19.30195801 31.60789062 19.30195801 32.546875 20.12011719 C51.62734027 36.90017146 51.62734027 36.90017146 56 48 C56.99 48.33 57.98 48.66 59 49 C60.578125 51.15234375 60.578125 51.15234375 62.25 53.9375 C64.60575654 57.77430178 67.01549446 61.51823894 69.625 65.1875 C74.62827534 72.29977929 78.59998803 78.57068967 81 87 C81.66 87 82.32 87 83 87 C83.56267578 88.23363281 83.56267578 88.23363281 84.13671875 89.4921875 C87.62106233 97.09279591 91.21175435 104.61899456 95.05859375 112.04296875 C100.06847408 121.80931134 106 133.91239671 106 145 C106.66 145 107.32 145 108 145 C108.67493341 147.22667765 109.33963044 149.45645977 110 151.6875 C110.37125 152.92886719 110.7425 154.17023438 111.125 155.44921875 C111.87703457 158.5010019 112.19034899 160.88898362 112 164 C112.66 164 113.32 164 114 164 C114.26554687 165.01320313 114.53109375 166.02640625 114.8046875 167.0703125 C115.16135689 168.42190177 115.51813343 169.77346278 115.875 171.125 C116.04902344 171.79015625 116.22304688 172.4553125 116.40234375 173.140625 C117.22105299 176.23352658 118.086338 179.25181917 119.125 182.28125 C120.101623 185.31575718 120.15085467 187.83205196 120 191 C120.66 191 121.32 191 122 191 C123.85466965 201.44907631 124.23049133 211.42300905 124 222 C117.93127172 217.55485357 111.99931354 213.03501965 106.703125 207.67578125 C103.722051 204.72486262 100.62371466 201.97515117 97.4375 199.25 C96.82688721 198.72704346 96.21627441 198.20408691 95.5871582 197.6652832 C90.77633205 193.58259557 85.82768627 189.7599976 80.7421875 186.0234375 C78.22483343 184.16590273 75.76427648 182.25525714 73.3125 180.3125 C69.57729787 177.3708573 65.68480202 174.77769699 61.65234375 172.26171875 C61.10707031 171.84535156 60.56179688 171.42898438 60 171 C60 170.34 60 169.68 60 169 C59.27167969 168.73316406 58.54335938 168.46632813 57.79296875 168.19140625 C55.02972021 167.01267785 52.77913082 165.64194609 50.3125 163.9375 C47.24499911 161.8177976 47.24499911 161.8177976 44 160 C44 159.34 44 158.68 44 158 C43.030625 157.731875 42.06125 157.46375 41.0625 157.1875 C40.051875 156.795625 39.04125 156.40375 38 156 C37.67 155.01 37.34 154.02 37 153 C35.01560177 152.28823593 33.01234847 151.62840918 31 151 C29.15268579 149.93313006 27.33906145 148.80593635 25.5625 147.625 C21.44270319 144.92912203 17.30294921 142.39052734 13 140 C13 139.34 13 138.68 13 138 C10.03 137.01 7.06 136.02 4 135 C4 134.34 4 133.68 4 133 C0.7 132.01 -2.6 131.02 -6 130 C-6 129.34 -6 128.68 -6 128 C-9.3 127.01 -12.6 126.02 -16 125 C-16 124.34 -16 123.68 -16 123 C-16.62648438 122.86722656 -17.25296875 122.73445312 -17.8984375 122.59765625 C-18.71570313 122.42105469 -19.53296875 122.24445313 -20.375 122.0625 C-21.18710937 121.88847656 -21.99921875 121.71445312 -22.8359375 121.53515625 C-25 121 -25 121 -27 120 C-27 119.34 -27 118.68 -27 118 C-28.093125 117.855625 -29.18625 117.71125 -30.3125 117.5625 C-34 117 -34 117 -37 116 C-37 115.34 -37 114.68 -37 114 C-37.83144531 113.87882813 -38.66289063 113.75765625 -39.51953125 113.6328125 C-40.60621094 113.46523438 -41.69289063 113.29765625 -42.8125 113.125 C-43.89144531 112.96257812 -44.97039062 112.80015625 -46.08203125 112.6328125 C-49 112 -49 112 -52 110 C-54.07848729 109.4431317 -56.17783653 108.96256246 -58.28515625 108.52734375 C-59.53876953 108.26759766 -60.79238281 108.00785156 -62.08398438 107.74023438 C-62.73842529 107.60834717 -63.39286621 107.47645996 -64.06713867 107.34057617 C-66.03287535 106.94348437 -67.99596528 106.53336214 -69.95898438 106.12304688 C-80.15131189 104.03671541 -89.98295156 102.84070799 -100.3828125 102.8671875 C-101.24075409 102.86623077 -102.09869568 102.86527405 -102.9826355 102.86428833 C-104.78595046 102.86361302 -106.58926795 102.86542161 -108.39257812 102.86962891 C-111.09771438 102.87494636 -113.80268158 102.86968218 -116.5078125 102.86328125 C-127.04665746 102.85966636 -137.49080249 103.18560676 -148 104 C-146.13307633 99.78252525 -143.36258608 97.83908031 -139.625 95.3125 C-138.3429162 94.42177187 -137.06167919 93.52982376 -135.78125 92.63671875 C-135.14058594 92.19247559 -134.49992187 91.74823242 -133.83984375 91.29052734 C-129.13335224 87.98923832 -124.58690588 84.4641577 -120 81 C-118.76481403 80.07486477 -117.52911103 79.15041954 -116.29296875 78.2265625 C-114.9661305 77.23439551 -113.63930791 76.24220757 -112.3125 75.25 C-111.64992188 74.75483887 -110.98734375 74.25967773 -110.3046875 73.74951172 C-106.60351463 70.97628587 -102.92515788 68.17680461 -99.26953125 65.34375 C-98.49375732 64.74401367 -97.7179834 64.14427734 -96.91870117 63.52636719 C-95.41173606 62.35929128 -93.90788446 61.18818186 -92.4074707 60.01269531 C-91.729021 59.48772461 -91.05057129 58.96275391 -90.3515625 58.421875 C-89.75166504 57.95362305 -89.15176758 57.48537109 -88.53369141 57.00292969 C-87 56 -87 56 -85 56 C-85 55.34 -85 54.68 -85 54 C-83.35 53.34 -81.7 52.68 -80 52 C-80 51.34 -80 50.68 -80 50 C-78.15772757 48.46375289 -76.308373 47.03887714 -74.375 45.625 C-69.3323814 41.84671143 -64.45670806 37.93082683 -59.6875 33.8125 C-59.13819824 33.33828613 -58.58889648 32.86407227 -58.02294922 32.37548828 C-56.92219388 31.42123753 -55.82367619 30.46440008 -54.72729492 29.50512695 C-53.53347623 28.4648595 -52.33262751 27.43262469 -51.1262207 26.40698242 C-44.86394068 21.04031166 -39.16576658 15.16814087 -33.44726562 9.23242188 C-32.68736328 8.45833984 -31.92746094 7.68425781 -31.14453125 6.88671875 C-30.46753174 6.18764404 -29.79053223 5.48856934 -29.09301758 4.76831055 C-26.83009579 2.85645443 -24.74486686 2.051108 -22 1 C-21.67 0.34 -21.34 -0.32 -21 -1 C-14.23562946 -3.35478088 -6.58936769 -2.31848122 0 0 Z " fill="#027CA3" transform="translate(599,653)"/>
<path d="M0 0 C1.11632812 0.53882813 2.23265625 1.07765625 3.3828125 1.6328125 C4.20523438 2.04273438 5.02765625 2.45265625 5.875 2.875 C5.875 3.535 5.875 4.195 5.875 4.875 C6.555625 5.060625 7.23625 5.24625 7.9375 5.4375 C12.01156879 7.43119324 15.00876943 10.37274708 17.875 13.875 C17.875 14.535 17.875 15.195 17.875 15.875 C19.36 16.37 19.36 16.37 20.875 16.875 C22.0625 20.4375 22.0625 20.4375 22.875 23.875 C23.535 23.875 24.195 23.875 24.875 23.875 C25.36009793 25.24791868 25.83775513 26.62346703 26.3125 28 C26.57933594 28.76570313 26.84617187 29.53140625 27.12109375 30.3203125 C30.65351915 42.29029287 29.61209591 55.12984144 25.875 66.875 C25.215 66.875 24.555 66.875 23.875 66.875 C23.83375 67.65875 23.7925 68.4425 23.75 69.25 C20.47024795 82.83754421 6.42263838 98.40299869 -5.125 105.875 C-8.125 104.875 -8.125 104.875 -9.10400391 103.16015625 C-9.39194824 102.42667969 -9.67989258 101.69320312 -9.9765625 100.9375 C-12.15223747 95.71422713 -14.76045605 90.82139881 -17.5 85.875 C-18.18449219 84.61816406 -18.18449219 84.61816406 -18.8828125 83.3359375 C-21.62090077 78.36738406 -24.54470154 73.60210129 -27.74780273 68.91943359 C-29.57759879 66.20312227 -31.26710181 63.4108712 -32.94921875 60.6015625 C-34.0642688 58.8480131 -34.0642688 58.8480131 -35.52734375 57.4765625 C-37.62822308 55.37054654 -39.26579396 53.04074227 -41 50.625 C-41.70511719 49.64789063 -42.41023437 48.67078125 -43.13671875 47.6640625 C-44.29426721 46.04031083 -45.44585355 44.41221391 -46.58203125 42.7734375 C-49.1480876 39.07505787 -51.90997089 36.01526099 -55.125 32.875 C-56.575406 31.32447269 -58.01205761 29.76100771 -59.4375 28.1875 C-60.13488281 27.42050781 -60.83226562 26.65351563 -61.55078125 25.86328125 C-63.125 23.875 -63.125 23.875 -63.125 21.875 C-63.70765625 21.62621094 -64.2903125 21.37742187 -64.890625 21.12109375 C-67.44007622 19.69928441 -68.96116159 18.13350689 -70.875 15.9375 C-71.79539062 14.90302734 -71.79539062 14.90302734 -72.734375 13.84765625 C-74.125 11.875 -74.125 11.875 -74.125 8.875 C-71.79589912 7.19287158 -69.80631417 6.03530922 -67 5.375 C-65.03360131 5.02884609 -65.03360131 5.02884609 -63.80810547 3.45776367 C-49.59303456 -9.90984653 -16.35491386 -8.00346848 0 0 Z " fill="#D58F4A" transform="translate(626.125,355.125)"/>
<path d="M0 0 C9.42555728 1.86319156 17.4519349 4.86806382 25.87890625 9.4140625 C28.87422598 10.9360898 31.79019665 12.02499207 35 13 C35 13.66 35 14.32 35 15 C37.97 15.99 40.94 16.98 44 18 C44 18.66 44 19.32 44 20 C45.36125 20.433125 45.36125 20.433125 46.75 20.875 C49.32202908 21.76531776 51.61346766 22.71494413 54 24 C54 24.66 54 25.32 54 26 C54.6703125 26.22042969 55.340625 26.44085938 56.03125 26.66796875 C59.91496909 28.41053219 63.09818427 30.77629481 66.5 33.3125 C67.15097656 33.78623047 67.80195312 34.25996094 68.47265625 34.74804688 C72.30469044 37.57755899 75.68247503 40.56356732 79 44 C79.78375 44.598125 80.5675 45.19625 81.375 45.8125 C85.89469395 49.57891163 89.5337148 54.15667004 93.1875 58.75 C94.92644095 61.00379649 94.92644095 61.00379649 96.875 62.8125 C99.92946523 65.95680244 102.42321439 69.46103869 105 73 C105.74056641 73.99193359 105.74056641 73.99193359 106.49609375 75.00390625 C110 79.75849858 110 79.75849858 110 82 C110.66 82 111.32 82 112 82 C113.43836985 84.70787448 114.87572092 87.41628161 116.3125 90.125 C116.71662109 90.88554687 117.12074219 91.64609375 117.53710938 92.4296875 C124 104.61985518 124 104.61985518 124 107 C124.66 107 125.32 107 126 107 C126.83830973 109.76941606 127.67082034 112.54035069 128.5 115.3125 C128.73847656 116.09818359 128.97695313 116.88386719 129.22265625 117.69335938 C129.44824219 118.45068359 129.67382812 119.20800781 129.90625 119.98828125 C130.11572266 120.68477783 130.32519531 121.38127441 130.54101562 122.09887695 C131 124 131 124 131 127 C131.66 127 132.32 127 133 127 C133.27714844 128.21558594 133.55429687 129.43117188 133.83984375 130.68359375 C134.20553898 132.26827307 134.57143475 133.85290612 134.9375 135.4375 C135.11990234 136.23994141 135.30230469 137.04238281 135.49023438 137.86914062 C136.09661008 141.74952729 136.09661008 141.74952729 138 145 C141.03691852 159.4490889 141.08631749 174.1830139 141.125 188.875 C141.12967285 190.11121094 141.1343457 191.34742188 141.13916016 192.62109375 C141.10748115 210.6927476 141.10748115 210.6927476 138.5 216.125 C135.26416582 218.55187563 133.07323316 218.48439286 129.12109375 218.37109375 C127 218 127 218 124 216 C123.0738133 213.2214399 122.88652367 211.64113218 122.91821289 208.7824707 C122.9247438 207.93340652 122.93127472 207.08434235 122.93800354 206.20954895 C122.94943893 205.29090561 122.96087433 204.37226227 122.97265625 203.42578125 C122.98532585 201.4576842 122.99768501 199.48958513 123.00976562 197.52148438 C123.03434006 194.43702808 123.06205854 191.35267906 123.09594727 188.26831055 C123.26198855 172.13615758 122.90998717 156.76165981 118.1875 141.1875 C117.92469238 140.29369629 117.66188477 139.39989258 117.39111328 138.47900391 C115.70835314 132.9087327 113.74199761 127.63083225 111.15234375 122.41015625 C109.88555414 119.76063358 108.90658962 117.08402091 107.9375 114.3125 C106.73509477 110.88687205 105.41094981 107.66615332 103.75 104.4375 C102 101 102 101 102 99 C101.34 99 100.68 99 100 99 C99.70867187 98.443125 99.41734375 97.88625 99.1171875 97.3125 C95.60455752 90.77326432 91.48956836 85.05861256 86.8125 79.3125 C85 77 85 77 83.5625 74.5 C81.69310488 71.50896781 79.55521231 69.44411612 77 67 C76.360625 66.34 75.72125 65.68 75.0625 65 C69.4010578 59.17680231 63.36911811 54.0311451 57 49 C56.15566406 48.32324219 55.31132813 47.64648438 54.44140625 46.94921875 C51.05799036 44.26581994 47.9343327 41.8219393 44 40 C44 39.34 44 38.68 44 38 C43.15695312 37.75378906 42.31390625 37.50757813 41.4453125 37.25390625 C37.65008379 35.87264954 34.32025874 34.00835982 30.875 31.9375 C27.30962125 29.79902973 24.08011411 27.94682074 20 27 C19.505 26.01 19.505 26.01 19 25 C16.79007734 24.16007109 16.79007734 24.16007109 14.1875 23.5 C11.63710052 22.80683382 9.31244978 22.15711761 6.94921875 20.96875 C4.83351319 19.91725706 2.93893041 19.45466703 0.625 19 C-9.27810725 16.8662713 -9.27810725 16.8662713 -11.875 13.75 C-13.2234576 10.45377031 -13.58772519 8.52635115 -13 5 C-9.38714665 -0.19347669 -5.96780587 -0.97022611 0 0 Z " fill="#66B15D" transform="translate(649,219)"/>
<path d="M0 0 C1.95378867 0.69603721 3.90638436 1.39735331 5.83691406 2.15551758 C7.9963715 2.99858341 10.16928119 3.77556213 12.359375 4.53515625 C13.08253906 4.78716797 13.80570313 5.03917969 14.55078125 5.29882812 C16.03208184 5.81320515 17.51386341 6.32619893 18.99609375 6.83789062 C22.44683331 8.04286162 25.78650765 9.23257921 29 11 C29 11.66 29 12.32 29 13 C29.87914062 13.26296875 30.75828125 13.5259375 31.6640625 13.796875 C39.90674266 16.76964489 47.14923108 22.61912786 54 28 C54.83789062 28.65226562 55.67578125 29.30453125 56.5390625 29.9765625 C60.94411574 33.44602921 65.17735818 36.88330881 69 41 C69.67675781 41.71800781 70.35351562 42.43601562 71.05078125 43.17578125 C75.64161054 48.13696315 79.72079204 53.20648354 83.49609375 58.8125 C85.06212924 61.16753671 85.06212924 61.16753671 87.375 63.8125 C89.17762105 66.23910526 89.65968733 68.02226417 90 71 C90.66 71 91.32 71 92 71 C95 76.625 95 76.625 95 80 C95.66 80 96.32 80 97 80 C97.50660156 81.58941406 97.50660156 81.58941406 98.0234375 83.2109375 C98.47363992 84.59906164 98.92417825 85.98707687 99.375 87.375 C99.59671875 88.07367188 99.8184375 88.77234375 100.046875 89.4921875 C101.37154413 93.62047803 101.37154413 93.62047803 104 97 C104.5625 99.07543945 104.5625 99.07543945 105 101.61328125 C105.165 102.53173828 105.33 103.45019531 105.5 104.39648438 C105.665 105.35876953 105.83 106.32105469 106 107.3125 C106.32850803 109.2052709 106.6616998 111.09723599 107 112.98828125 C107.144375 113.82915283 107.28875 114.67002441 107.4375 115.53637695 C107.94305354 118.0528491 107.94305354 118.0528491 109.02416992 120.52807617 C111.97238947 127.9963581 111.1824839 137.09462709 111.1875 145 C111.19974609 146.01578125 111.21199219 147.0315625 111.22460938 148.078125 C111.25573502 164.26345938 111.25573502 164.26345938 107.55908203 168.74804688 C105.50403446 170.39826359 104.17747616 170.46472208 101.5625 170.5 C100.41974609 170.54640625 100.41974609 170.54640625 99.25390625 170.59375 C95.83059639 169.6919422 94.88450808 167.94341282 93 165 C92.66792447 162.31305568 92.55248021 160.06004657 92.64453125 157.390625 C92.65256271 156.66437927 92.66059418 155.93813354 92.66886902 155.18988037 C92.6977427 152.87582807 92.75386694 150.56347238 92.8125 148.25 C92.86907204 145.21364764 92.91520782 142.17721397 92.95703125 139.140625 C92.97305893 138.05382446 92.97305893 138.05382446 92.9894104 136.94506836 C93.0612093 130.28997361 92.98715221 123.76762357 90.5 117.5 C88.87048933 112.99301194 88.37856742 108.76994955 88 104 C87.34 104 86.68 104 86 104 C85.78085937 103.18917969 85.56171875 102.37835938 85.3359375 101.54296875 C82.7889337 92.6491628 79.21314842 85.12910932 74.31640625 77.3125 C73 75 73 75 73 73 C72.34 73 71.68 73 71 73 C69.80859375 71.3828125 69.80859375 71.3828125 68.4375 69.125 C62.35494878 59.67319246 54.17686658 51.46760723 45.5 44.375 C44.5821875 43.61960937 43.664375 42.86421875 42.71875 42.0859375 C40.05947298 39.95294862 40.05947298 39.95294862 37.15625 38.3515625 C36.08890625 37.68253906 36.08890625 37.68253906 35 37 C35 36.34 35 35.68 35 35 C34.05125 34.690625 33.1025 34.38125 32.125 34.0625 C29 33 29 33 27 32 C27 31.34 27 30.68 27 30 C26.01 29.7525 25.02 29.505 24 29.25 C20.35159577 28.21925165 17.13915251 26.67375083 13.796875 24.90234375 C11.84692807 23.86945308 11.84692807 23.86945308 9 23 C9 22.34 9 21.68 9 21 C8.28714844 20.87882812 7.57429687 20.75765625 6.83984375 20.6328125 C3.88735799 20.11622684 0.9431617 19.5672131 -2 19 C-2.70898438 18.86722656 -3.41796875 18.73445313 -4.1484375 18.59765625 C-7.23725392 17.88952148 -9.04004934 16.96508519 -11.4375 14.875 C-13.64499894 10.81320195 -13.58427629 8.60117579 -13 4 C-10.08057579 -1.07725949 -5.28132898 -0.8775861 0 0 Z " fill="#077EA5" transform="translate(633,262)"/>
<path d="M0 0 C2.68665926 0.96941313 5.33442149 1.99077881 7.96875 3.09375 C7.96875 3.75375 7.96875 4.41375 7.96875 5.09375 C8.82339844 5.27550781 9.67804687 5.45726562 10.55859375 5.64453125 C11.66332031 5.89589844 12.76804687 6.14726562 13.90625 6.40625 C15.55947266 6.77169922 15.55947266 6.77169922 17.24609375 7.14453125 C18.59380859 7.61439453 18.59380859 7.61439453 19.96875 8.09375 C20.46375 9.57875 20.46375 9.57875 20.96875 11.09375 C22.62396951 11.78835104 24.29340334 12.44920691 25.96875 13.09375 C33.26265665 17.97947823 39.81430967 23.66508694 46.03125 29.84375 C46.56685547 30.37395752 47.10246094 30.90416504 47.65429688 31.45043945 C52.19184073 36.07086412 59.96875 44.31365622 59.96875 51.09375 C60.62875 51.09375 61.28875 51.09375 61.96875 51.09375 C72.44679645 73.06272073 72.44679645 73.06272073 72.96875 85.09375 C73.62875 85.09375 74.28875 85.09375 74.96875 85.09375 C76.02603087 91.95358809 76.08514843 98.66158224 76.03125 105.59375 C76.02673828 106.70234375 76.02222656 107.8109375 76.01757812 108.953125 C76.00588158 111.66672399 75.98949086 114.38020761 75.96875 117.09375 C75.30875 117.09375 74.64875 117.09375 73.96875 117.09375 C73.5046875 118.0528125 73.5046875 118.0528125 73.03125 119.03125 C71.96875 121.09375 71.96875 121.09375 70.96875 122.09375 C63.73912037 122.68634259 63.73912037 122.68634259 60.53125 120.21875 C58.28627318 117.16558153 57.83443875 115.42539329 57.72265625 111.69140625 C57.67564575 110.36387329 57.67564575 110.36387329 57.62768555 109.00952148 C57.59586182 108.06794189 57.56403809 107.1263623 57.53125 106.15625 C56.81588378 89.11505105 53.58920468 70.01199868 42.96875 56.09375 C42.35515625 54.98128906 41.7415625 53.86882812 41.109375 52.72265625 C39.07346679 49.09993723 36.55494024 46.05499396 33.71875 43.03125 C33.24074951 42.51320801 32.76274902 41.99516602 32.27026367 41.46142578 C28.90789386 37.89294444 25.41594863 34.88047454 21.33203125 32.1796875 C20.88214844 31.82132812 20.43226563 31.46296875 19.96875 31.09375 C19.96875 30.43375 19.96875 29.77375 19.96875 29.09375 C19.246875 28.805 18.525 28.51625 17.78125 28.21875 C16.853125 27.8475 15.925 27.47625 14.96875 27.09375 C14.06125 26.76375 13.15375 26.43375 12.21875 26.09375 C9.96875 25.09375 9.96875 25.09375 8.96875 23.09375 C6.6546878 22.36299352 4.32046131 21.69236742 1.96875 21.09375 C1.96875 20.43375 1.96875 19.77375 1.96875 19.09375 C0.77378906 18.94679688 0.77378906 18.94679688 -0.4453125 18.796875 C-12.41920987 17.10712793 -12.41920987 17.10712793 -16.03125 13.09375 C-16.99483679 8.50524147 -16.85838009 4.60416147 -14.59375 0.46875 C-9.72056956 -2.14612731 -5.19215984 -1.55229521 0 0 Z " fill="#A6A09F" transform="translate(620.03125,303.90625)"/>
<path d="M0 0 C-0.66 0.66 -1.32 1.32 -2 2 C22.42 2 46.84 2 72 2 C72 2.33 72 2.66 72 3 C43.98070092 4.94073067 16.07943972 5.23909918 -12 5 C-5.45833333 -1.81944444 -5.45833333 -1.81944444 0 0 Z " fill="#7EBC78" transform="translate(31,795)"/>
<path d="M0 0 C0.91133194 -0.00628922 1.82266388 -0.01257843 2.76161194 -0.01905823 C3.75108322 -0.02026169 4.7405545 -0.02146515 5.76000977 -0.02270508 C6.7910936 -0.02684921 7.82217743 -0.03099335 8.88450623 -0.03526306 C12.24017868 -0.04496631 15.59573166 -0.04491882 18.95141602 -0.04223633 C20.65022919 -0.04232697 20.65022919 -0.04232697 22.38336182 -0.04241943 C35.7406268 -0.03221018 49.06163338 0.06156536 62.38891602 1.02026367 C64.0487854 1.13785034 64.0487854 1.13785034 65.7421875 1.2578125 C70.1803979 1.63278645 73.587527 1.93040643 77.51391602 4.14526367 C73.70120062 4.00475479 69.88880385 3.85687633 66.07641602 3.70776367 C64.4725 3.64878906 64.4725 3.64878906 62.83618164 3.58862305 C58.29395436 3.4080452 53.79534579 3.22578531 49.28735352 2.62573242 C42.09336197 1.76167457 34.8120672 1.90573119 27.57641602 1.89526367 C26.77632111 1.89259491 25.9762262 1.88992615 25.15188599 1.88717651 C11.37188446 1.86548326 -2.22166367 2.71796095 -15.92138672 4.16577148 C-16.60474091 4.23648361 -17.28809509 4.30719574 -17.99215698 4.38005066 C-19.82833343 4.57296872 -21.66325454 4.77773261 -23.49804688 4.98339844 C-26.15812531 5.12749779 -27.98579948 4.98533779 -30.48608398 4.14526367 C-28.14700967 2.97572652 -26.40719529 2.86641555 -23.80249023 2.64526367 C-22.87500977 2.56276367 -21.9475293 2.48026367 -20.99194336 2.39526367 C-20.02063477 2.31276367 -19.04932617 2.23026367 -18.04858398 2.14526367 C-16.13293453 1.98190383 -14.21755211 1.81537326 -12.30249023 1.64526367 C-11.02547241 1.53698242 -11.02547241 1.53698242 -9.72265625 1.42651367 C-6.31609384 0.99813687 -3.48704153 0.01667471 0 0 Z " fill="#CECCCB" transform="translate(464.486083984375,79.854736328125)"/>
<path d="M0 0 C2.66300193 -0.0021978 5.32559548 -0.02047611 7.98852539 -0.03930664 C34.62927782 -0.1284144 34.62927782 -0.1284144 41.09985352 4.18530273 C40.13329079 4.07933273 40.13329079 4.07933273 39.14720154 3.97122192 C31.81295772 3.22837001 24.56566935 3.03929723 17.19750977 3.05249023 C15.99855576 3.05153351 14.79960175 3.05057678 13.5643158 3.04959106 C11.04401598 3.04891451 8.52371437 3.05073195 6.00341797 3.05493164 C2.17679878 3.06028254 -1.64970279 3.05497109 -5.47631836 3.04858398 C-7.93920924 3.04924495 -10.40210005 3.0505265 -12.86499023 3.05249023 C-13.99347885 3.050466 -15.12196747 3.04844177 -16.28465271 3.0463562 C-23.53598792 3.06742774 -30.68408161 3.47233018 -37.90014648 4.18530273 C-37.90014648 3.52530273 -37.90014648 2.86530273 -37.90014648 2.18530273 C-26.22378944 -1.28900104 -12.0899678 -0.00111295 0 0 Z " fill="#ABD1DA" transform="translate(484.900146484375,754.814697265625)"/>
<path d="M0 0 C0 3 0 3 -1.92773438 5.26831055 C-2.80751953 6.13238525 -3.68730469 6.99645996 -4.59375 7.88671875 C-5.05986694 8.34859085 -5.52598389 8.81046295 -6.00622559 9.28633118 C-7.4972629 10.76056952 -8.99838872 12.22404088 -10.5 13.6875 C-11.51240054 14.68485528 -12.52412811 15.68289417 -13.53515625 16.68164062 C-16.01567629 19.12907564 -18.50535089 21.56695887 -21 24 C-21.66 23.67 -22.32 23.34 -23 23 C-22.04882866 21.8274869 -21.08882991 20.66212985 -20.125 19.5 C-19.59132812 18.8503125 -19.05765625 18.200625 -18.5078125 17.53125 C-18.01023438 17.0259375 -17.51265625 16.520625 -17 16 C-16.34 16 -15.68 16 -15 16 C-14.7834375 15.45730469 -14.566875 14.91460937 -14.34375 14.35546875 C-12.53960874 11.19297694 -10.084037 8.83310456 -7.5 6.3125 C-7.00113281 5.81427734 -6.50226563 5.31605469 -5.98828125 4.80273438 C-2.2816578 1.1408289 -2.2816578 1.1408289 0 0 Z " fill="#B6B2B1" transform="translate(210,191)"/>
<path d="M0 0 C0.66 0.33 1.32 0.66 2 1 C1.01 1.66 0.02 2.32 -1 3 C19.295 3.495 19.295 3.495 40 4 C40 4.33 40 4.66 40 5 C24.49 5 8.98 5 -7 5 C-3 1 -3 1 0 0 Z " fill="#9BC99A" transform="translate(26,795)"/>
<path d="M0 0 C0 4.92745075 -3.68086383 7.60021193 -7 11 C-9.60508221 13.41026736 -12.27081874 15.7315896 -15 18 C-15.66 17.67 -16.32 17.34 -17 17 C-11.39 11.39 -5.78 5.78 0 0 Z " fill="#479EB8" transform="translate(567,661)"/>
<path d="M0 0 C0.66 0.33 1.32 0.66 2 1 C1.01 1.66 0.02 2.32 -1 3 C2.63 3.33 6.26 3.66 10 4 C10 4.33 10 4.66 10 5 C4.39 5 -1.22 5 -7 5 C-3 1 -3 1 0 0 Z " fill="#89C186" transform="translate(26,795)"/>
<path d="M0 0 C0 0.33 0 0.66 0 1 C-1.60875 1.12375 -1.60875 1.12375 -3.25 1.25 C-7.33859877 2.06771975 -8.59547153 2.67065289 -11 6 C-11.79681318 8.64184541 -11.79681318 8.64184541 -12 11 C-12.33 11 -12.66 11 -13 11 C-13.45761159 7.0645403 -13.29742742 5.42755191 -11 2.125 C-6.96957293 -0.72988584 -4.84275759 -0.41040319 0 0 Z " fill="#7EBB78" transform="translate(649,219)"/>
<path d="M0 0 C0.66 0.33 1.32 0.66 2 1 C0.02 3.31 -1.96 5.62 -4 8 C-5.32 6.35 -6.64 4.7 -8 3 C-7.67 2.34 -7.34 1.68 -7 1 C-6.67 1.99 -6.34 2.98 -6 4 C-4.02 2.68 -2.04 1.36 0 0 Z " fill="#CAD2D5" transform="translate(711,788)"/>
<path d="M0 0 C1.18851562 0.00902344 2.37703125 0.01804687 3.6015625 0.02734375 C4.51679688 0.03894531 5.43203125 0.05054688 6.375 0.0625 C2.97068053 2.33204631 1.20975798 2.42799949 -2.8125 2.6875 C-3.89917969 2.76226563 -4.98585938 2.83703125 -6.10546875 2.9140625 C-6.93691406 2.96304688 -7.76835937 3.01203125 -8.625 3.0625 C-8.625 2.4025 -8.625 1.7425 -8.625 1.0625 C-5.74084117 -0.37957941 -3.20778472 -0.03144887 0 0 Z " fill="#79B7C7" transform="translate(455.625,755.9375)"/>
<path d="M0 0 C0.66 0 1.32 0 2 0 C0.60667426 3.36720387 -0.9789286 4.9859524 -4 7 C-4.33 6.01 -4.66 5.02 -5 4 C-3.35 3.34 -1.7 2.68 0 2 C0 1.34 0 0.68 0 0 Z " fill="#2F92B1" transform="translate(519,703)"/>
</svg>
